<?xml version="1.0" encoding="UTF-8"?>
<svg width="144px" height="144px" viewBox="0 0 144 144" version="1.1" xmlns="http://www.w3.org/2000/svg" xmlns:xlink="http://www.w3.org/1999/xlink">
    <!-- Generator: Sketch 43.2 (39069) - http://www.bohemiancoding.com/sketch -->
    <title>no-activity-found</title>
    <desc>Created with Sketch.</desc>
    <defs>
        <circle id="path-1" cx="72" cy="72" r="72"></circle>
        <linearGradient x1="50%" y1="0%" x2="50%" y2="100%" id="linearGradient-3">
            <stop stop-color="#FBDA61" offset="0%"></stop>
            <stop stop-color="#F7AE1C" offset="100%"></stop>
        </linearGradient>
        <path d="M26.4285714,78.0351032 C47.3948682,78.0351032 52.8571429,66.1230414 52.8571429,51.4287684 C52.8571429,46.5141446 52.8571429,30.0197257 52.8571429,24.8224335 C52.8571429,19.6251414 51.5707314,14.627812 45.4543407,7.90172511 C39.33795,1.17563818 30.8320021,0 26.4285714,0 C21.5570601,0 12.3723291,2.19716568 6.31734295,9.34933541 C0.262356828,16.5015051 4.19839505e-13,21.1128394 1.48729866e-13,24.8224335 C-1.21963486e-13,28.5320277 1.48729866e-13,44.9007043 1.48729866e-13,51.4287684 C1.48729866e-13,66.1230414 5.46227463,78.0351032 26.4285714,78.0351032 Z" id="path-4"></path>
        <path d="M26.4285714,78.0351032 C47.3948682,78.0351032 52.8571429,66.1230414 52.8571429,51.4287684 C52.8571429,46.5141446 52.8571429,30.0197257 52.8571429,24.8224335 C52.8571429,19.6251414 51.5707314,14.627812 45.4543407,7.90172511 C39.33795,1.17563818 30.8320021,0 26.4285714,0 C21.5570601,0 12.3723291,2.19716568 6.31734295,9.34933541 C0.262356828,16.5015051 4.19839505e-13,21.1128394 1.48729866e-13,24.8224335 C-1.21963486e-13,28.5320277 1.48729866e-13,44.9007043 1.48729866e-13,51.4287684 C1.48729866e-13,66.1230414 5.46227463,78.0351032 26.4285714,78.0351032 Z" id="path-6"></path>
    </defs>
    <g id="Activities" stroke="none" stroke-width="1" fill="none" fill-rule="evenodd">
        <g id="no-activity-found">
            <g id="Group-10">
                <g id="Group-9">
                    <mask id="mask-2" fill="white">
                        <use xlink:href="#path-1"></use>
                    </mask>
                    <use id="Mask" fill="#FFFFFF" xlink:href="#path-1"></use>
                    <g mask="url(#mask-2)">
                        <g transform="translate(35.000000, 11.000000)">
                            <g id="guy3-copy" stroke="none" stroke-width="1" fill="none" fill-rule="evenodd">
                                <path d="M36.8123289,0 C57.1432168,0 73.6246579,9.65532862 73.6246579,21.5657801 C73.6246579,25.5493312 73.6246579,38.918892 73.6246579,43.1315601 C73.6246579,47.3442283 71.8328168,51.3948165 63.3133027,56.8466501 C54.7937886,62.2984838 42.9458628,63.251398 36.8123289,63.251398 C30.026806,63.251398 17.233404,61.4704841 8.79942026,55.6732887 C0.365436546,49.8760934 5.45207565e-13,46.1383738 1.67577733e-13,43.1315601 C-2.09472167e-13,40.1247464 1.67577733e-13,26.8571062 1.67577733e-13,21.5657801 C1.67577733e-13,9.65532862 16.4814411,0 36.8123289,0 Z" id="Combined-Shape" fill="url(#linearGradient-3)"></path>
                                <path d="M36.8123289,0 C57.1432168,0 73.6246579,9.65532862 73.6246579,21.5657801 C73.6246579,25.5493312 73.6246579,38.918892 73.6246579,43.1315601 C73.6246579,47.3442283 71.8328168,51.3948165 63.3133027,56.8466501 C54.7937886,62.2984838 42.9458628,63.251398 36.8123289,63.251398 C30.026806,63.251398 17.233404,61.4704841 8.79942026,55.6732887 C0.365436546,49.8760934 5.45207565e-13,46.1383738 1.67577733e-13,43.1315601 C-2.09472167e-13,40.1247464 1.67577733e-13,26.8571062 1.67577733e-13,21.5657801 C1.67577733e-13,9.65532862 16.4814411,0 36.8123289,0 Z" id="Combined-Shape" stroke="#1164CE" stroke-width="2.28" stroke-linecap="round" stroke-linejoin="round"></path>
                                <g id="corps" transform="translate(10.571429, 89.701357)">
                                    <mask id="mask-5" fill="white">
                                        <use xlink:href="#path-4"></use>
                                    </mask>
                                    <use id="Oval" fill="#FFFFFF" transform="translate(26.428571, 39.017552) scale(1, -1) translate(-26.428571, -39.017552) " xlink:href="#path-4"></use>
                                    <mask id="mask-7" fill="white">
                                        <use xlink:href="#path-6"></use>
                                    </mask>
                                    <use id="Oval" stroke="#1164CE" stroke-width="2.28" stroke-linecap="round" stroke-linejoin="round" transform="translate(26.428571, 39.017552) scale(1, -1) translate(-26.428571, -39.017552) " xlink:href="#path-6"></use>
                                    <g id="Group-2" mask="url(#mask-7)">
                                        <g transform="translate(10.571429, -3.800905)" id="Group-3">
                                            <g>
                                                <ellipse id="decolleté-fond" fill="#FFD5AB" cx="15.8571429" cy="11.3566434" rx="12.8367347" ry="11.3566434"></ellipse>
                                                <polyline id="Path-22" fill="#0850AB" points="10.8518785 19.1826665 14.5181217 14.2539289 18.4668773 14.2539289 21.8054204 19.784778 17.0028663 24.8502802"></polyline>
                                                <polyline id="Path-21" stroke="#1164CE" stroke-width="2.28" fill="#1164CE" stroke-linecap="round" stroke-linejoin="round" points="10.8315856 18.494444 14.6146834 14.1069692 7.55102041 8.36199095 6.99538676 13.7822073"></polyline>
                                                <polyline id="Path-21-Copy" stroke="#1164CE" stroke-width="2.28" fill="#1164CE" stroke-linecap="round" stroke-linejoin="round" transform="translate(21.654280, 13.428217) scale(-1, 1) translate(-21.654280, -13.428217) " points="21.4030142 18.494444 25.186112 14.1069692 18.122449 8.36199095 18.3895106 14.6129357"></polyline>
                                                <g id="Group-7" transform="translate(0.000000, 3.040724)">
                                                    <path d="M7.33094915,4.08562073e-14 C7.33094915,4.08562073e-14 3.62691212,15.9480953 18.7156411,23.4627303 C18.7156411,23.4627303 10.7078891,24.6473367 5.04433261,18.9771358 C5.04433261,18.9771358 6.26201742,15.6393831 6.26201742,15.6393831 L1.60015036,16.501112 C1.60015036,16.501112 -3.10591764,6.08512925 7.33094915,4.08562073e-14 Z" id="Path-16" fill="#FFFFFF"></path>
                                                    <path d="M7.33094915,4.08562073e-14 C7.33094915,4.08562073e-14 3.62691212,15.9480953 18.7156411,23.4627303 C18.7156411,23.4627303 10.7078891,24.6473367 5.04433261,18.9771358 C5.04433261,18.9771358 6.26201742,15.6393831 6.26201742,15.6393831 L1.60015036,16.501112 C1.60015036,16.501112 -3.10591764,6.08512925 7.33094915,4.08562073e-14 Z" id="Path-16" stroke="#1164CE" stroke-width="2.28" stroke-linecap="round" stroke-linejoin="round"></path>
                                                </g>
                                                <g id="Group-7" transform="translate(23.030612, 14.823529) scale(-1, 1) translate(-23.030612, -14.823529) translate(14.346939, 3.040724)">
                                                    <path d="M6.3848874,4.08562073e-14 C6.3848874,4.08562073e-14 2.93327456,15.9480953 16.9937308,23.4627303 C16.9937308,23.4627303 9.53169435,24.6473367 4.25410011,18.9771358 C4.25410011,18.9771358 5.38880166,15.6393831 5.38880166,15.6393831 L1.04463337,16.501112 C1.04463337,16.501112 -3.34072364,6.08512925 6.3848874,4.08562073e-14 Z" id="Path-16" fill="#FFFFFF"></path>
                                                    <path d="M6.3848874,4.08562073e-14 C6.3848874,4.08562073e-14 2.93327456,15.9480953 16.9937308,23.4627303 C16.9937308,23.4627303 9.53169435,24.6473367 4.25410011,18.9771358 C4.25410011,18.9771358 5.38880166,15.6393831 5.38880166,15.6393831 L1.04463337,16.501112 C1.04463337,16.501112 -3.34072364,6.08512925 6.3848874,4.08562073e-14 Z" id="Path-16" stroke="#1164CE" stroke-width="2.28" stroke-linecap="round" stroke-linejoin="round"></path>
                                                </g>
                                            </g>
                                        </g>
                                    </g>
                                    <g id="bras-droit" mask="url(#mask-7)">
                                        <g transform="translate(8.306122, 25.085973)"></g>
                                    </g>
                                    <g id="bras-droit" mask="url(#mask-7)">
                                        <g transform="translate(43.051020, 50.585973) scale(-1, 1) translate(-43.051020, -50.585973) translate(41.551020, 25.085973)"></g>
                                    </g>
                                </g>
                                <g id="coups" transform="translate(29.448980, 82.099548)">
                                    <polyline fill="#FFD5AB" points="15.1020408 10.6425339 15.1020408 0 0 0 0 10.6060339"></polyline>
                                    <polyline stroke="#1164CE" stroke-width="2.28" stroke-linecap="round" stroke-linejoin="round" points="15.1020408 13.6832579 15.1020408 3.04072398 0 3.04072398 0 13.6467578"></polyline>
                                </g>
                                <g id="head" transform="translate(1.510204, 8.361991)">
                                    <g id="oreilles" transform="translate(0.000000, 41.049774)">
                                        <path d="M6.24155445,13.6832579 L12.0816327,13.6832579 L12.0816327,6.84162896 L12.0816327,0 L6.24155445,0 C2.79443911,0 0,3.06310162 0,6.84162896 C0,10.6201563 2.79443911,13.6832579 6.24155445,13.6832579 Z" id="Oval-4" fill="#E9BB8D"></path>
                                        <path d="M65.1395136,13.6832579 L70.9795918,13.6832579 L70.9795918,6.84162896 L70.9795918,0 L65.1395136,0 C61.6923983,0 58.8979592,3.06310162 58.8979592,6.84162896 C58.8979592,10.6201563 61.6923983,13.6832579 65.1395136,13.6832579 Z" id="Oval-4-Copy-2" fill="#E9BB8D" transform="translate(64.938776, 6.841629) scale(-1, 1) translate(-64.938776, -6.841629) "></path>
                                        <path d="M6.24155445,13.6832579 L12.0816327,13.6832579 L12.0816327,6.84162896 L12.0816327,0 L6.24155445,0 C2.79443911,0 0,3.06310162 0,6.84162896 C0,10.6201563 2.79443911,13.6832579 6.24155445,13.6832579 Z" id="Oval-4" stroke="#1164CE" stroke-width="2.28" stroke-linecap="round" stroke-linejoin="round"></path>
                                        <path d="M65.1395136,13.6832579 L70.9795918,13.6832579 L70.9795918,6.84162896 L70.9795918,0 L65.1395136,0 C61.6923983,0 58.8979592,3.06310162 58.8979592,6.84162896 C58.8979592,10.6201563 61.6923983,13.6832579 65.1395136,13.6832579 Z" id="Oval-4-Copy-2" stroke="#1164CE" stroke-width="2.28" stroke-linecap="round" stroke-linejoin="round" transform="translate(64.938776, 6.841629) scale(-1, 1) translate(-64.938776, -6.841629) "></path>
                                    </g>
                                    <g id="forme" transform="translate(9.061224, 0.000000)">
                                        <path d="M26.4285714,78.0351032 C41.0246684,78.0351032 52.8571429,66.1230414 52.8571429,51.4287684 C52.8571429,46.5141446 52.8571429,30.0197257 52.8571429,24.8224335 C52.8571429,19.6251414 51.5707314,14.627812 45.4543407,7.90172511 C39.33795,1.17563818 30.8320021,0 26.4285714,0 C21.5570601,0 12.3723291,2.19716568 6.31734295,9.34933541 C0.262356828,16.5015051 3.55892192e-13,21.1128394 8.47814724e-14,24.8224335 C-1.85912898e-13,28.5320277 8.47814724e-14,44.9007043 8.47814724e-14,51.4287684 C8.47814724e-14,66.1230414 11.8324745,78.0351032 26.4285714,78.0351032 Z" id="Oval" fill="#FFD5AB"></path>
                                        <path d="M25.8213277,0.471673564 C25.8213277,0.471673564 46.6398435,3.22490341 46.6398435,30.2324815 C46.6398435,57.2400595 51.0300746,72.1270613 28.8152278,77.0971573 C28.8152278,77.0971573 41.986692,76.8037486 46.3429979,68.8359154 C50.6993038,60.8680821 53.6816385,58.7140892 53.109536,38.8686346 C52.5374335,19.02318 52.2461016,16.7457041 46.3429979,8.43950677 C40.4398942,0.133309453 25.8213277,0.471673564 25.8213277,0.471673564 Z" id="Path-2" fill="#E9BB8D"></path>
                                        <path d="M5.97383938,13.0840673 C5.97383938,13.0840673 16.0267454,34.5172661 52.3920015,31.7628561 C52.3920015,31.7628561 49.959498,22.1595818 49.959498,22.1595818 L14.6770117,11.269565 L5.97383938,13.0840673 Z" id="Path-14" fill="#E9BB8D"></path>
                                        <path d="M26.4285714,78.0351032 C41.0246684,78.0351032 52.8571429,66.1230414 52.8571429,51.4287684 C52.8571429,46.5141446 52.8571429,30.0197257 52.8571429,24.8224335 C52.8571429,19.6251414 51.5707314,14.627812 45.4543407,7.90172511 C39.33795,1.17563818 30.8320021,0 26.4285714,0 C21.5570601,0 12.3723291,2.19716568 6.31734295,9.34933541 C0.262356828,16.5015051 3.55892192e-13,21.1128394 8.47814724e-14,24.8224335 C-1.85912898e-13,28.5320277 8.47814724e-14,44.9007043 8.47814724e-14,51.4287684 C8.47814724e-14,66.1230414 11.8324745,78.0351032 26.4285714,78.0351032 Z" id="Oval" stroke="#1164CE" stroke-width="2.28" stroke-linecap="round" stroke-linejoin="round"></path>
                                    </g>
                                    <g id="nez" transform="translate(33.224490, 51.692308)" stroke="#1164CE" stroke-width="2.28" stroke-linecap="round" stroke-linejoin="round">
                                        <path d="M7.10542736e-15,0.0622346554 C7.10542736e-15,0.0622346554 2.54948212,1.35563494 5.09896424,2.10942375e-14" id="Path-3"></path>
                                    </g>
                                    <g id="yeux" transform="translate(19.632653, 31.167421)">
                                        <g id="Group">
                                            <ellipse id="Oval-2" fill="#1164CE" cx="5.28571429" cy="11.4027149" rx="3.02040816" ry="3.04072398"></ellipse>
                                            <path d="M0,2.53332804 C0,2.53332804 1.50455989,-0.522346196 6.74612887,0.0781957799" id="Path-2" stroke="#1164CE" stroke-width="2.28" stroke-linecap="round" stroke-linejoin="round"></path>
                                        </g>
                                        <g id="Group-Copy" transform="translate(27.561224, 7.221719) scale(-1, 1) translate(-27.561224, -7.221719) translate(23.408163, 0.000000)">
                                            <ellipse id="Oval-2" fill="#1164CE" cx="5.28571429" cy="11.4027149" rx="3.02040816" ry="3.04072398"></ellipse>
                                            <path d="M0,2.53332804 C0,2.53332804 1.50455989,-0.522346196 6.74612887,0.0781957799" id="Path-2" stroke="#1164CE" stroke-width="2.28" stroke-linecap="round" stroke-linejoin="round"></path>
                                        </g>
                                    </g>
                                    <g id="bouche" transform="translate(34.734694, 69.936652)" stroke="#1164CE" stroke-width="2.28" stroke-linecap="round" stroke-linejoin="round">
                                        <path d="M7.10542736e-15,0.0622346554 C7.10542736e-15,0.0622346554 1.64864649,0.555676878 3.02040816,2.07611706e-14" id="Path-3-Copy-2"></path>
                                    </g>
                                    <g id="paumettes-copy" transform="translate(17.367347, 50.651584)" fill="#E9BB8D">
                                        <ellipse id="Oval-3" cx="3.7755102" cy="3.80090498" rx="3.7755102" ry="3.80090498"></ellipse>
                                        <ellipse id="Oval-3-Copy" cx="32.4693878" cy="3.80090498" rx="3.7755102" ry="3.80090498"></ellipse>
                                    </g>
                                </g>
                                <g id="Group-4" transform="translate(12.836735, 4.561086)">
                                    <path d="M24.1868082,1.0658141e-13 C39.7907701,1.0658141e-13 52.6516688,12.7326442 55.3177241,27.974025 C55.4795185,28.8989759 40.2566548,32.9457596 26.2498887,29.3064283 C11.3967008,25.447174 -2.22721688,13.7813316 0.305346495,10.8811328 C6.13073405,4.21011242 14.6703938,1.0658141e-13 24.1868082,1.0658141e-13 Z" id="Combined-Shape" fill="#FBCA3B"></path>
                                    <path d="M0,14.4434389 C0,14.4434389 15.4587218,35.9281314 54.7273038,29.9278413" id="Path-11" stroke="#1164CE" stroke-width="2.28" stroke-linecap="round" stroke-linejoin="round"></path>
                                    <path d="M30.2040816,17.4841629 C30.2040816,17.4841629 36.4277169,26.1338359 52.2371308,23.7181371" id="Path-11-Copy" stroke="#1164CE" stroke-width="2.28" stroke-linecap="round" stroke-linejoin="round"></path>
                                </g>
                                <path d="M49,16.9844149 C49,16.9844149 56.2059203,18.5454858 60.2166296,16" id="Path-12" stroke="#1164CE" stroke-width="2.28" stroke-linecap="round" stroke-linejoin="round" transform="translate(54.608315, 16.729069) rotate(10.000000) translate(-54.608315, -16.729069) "></path>
                            </g>
                            <g id="Group-6" stroke="none" stroke-width="1" fill="none" fill-rule="evenodd" transform="translate(7.306122, 43.330317)" stroke-linecap="round" stroke-linejoin="round">
                                <path d="M26.9337699,3.80090498 L32.2194841,3.80090498" id="Path-17" stroke="#1164CE" stroke-width="2.28"></path>
                                <g id="Group-5" transform="translate(32.714286, 0.000000)" stroke="#1164CE" stroke-width="2.28">
                                    <path d="M4.1490129,1.55180858 L24.7900985,1.55180858" id="Path-17"></path>
                                    <rect id="Rectangle-5" fill-opacity="0.435320426" fill="#FFFFFF" x="0" y="1.52036199" width="17.3673469" height="12.9230769" rx="2.28"></rect>
                                </g>
                                <g id="Group-5-Copy" transform="translate(13.673469, 7.500000) scale(-1, 1) translate(-13.673469, -7.500000) translate(0.673469, 0.000000)" stroke="#1164CE" stroke-width="2.28">
                                    <path d="M4.1490129,1.55180858 L24.7900985,1.55180858" id="Path-17"></path>
                                    <rect id="Rectangle-5" fill-opacity="0.435320426" fill="#FFFFFF" x="0" y="1.52036199" width="17.3673469" height="12.9230769" rx="2.28"></rect>
                                </g>
                            </g>
                            <ellipse id="Oval-6" stroke="none" fill="#E9BB8D" fill-rule="evenodd" cx="37" cy="69.9366516" rx="3.02040816" ry="3.04072398"></ellipse>
                            <ellipse id="Oval-6" stroke="#1164CE" stroke-width="2.28" fill="none" stroke-linecap="round" stroke-linejoin="round" cx="37" cy="69.9366516" rx="3.02040816" ry="3.04072398"></ellipse>
                            <g id="Group-8" stroke="none" stroke-width="1" fill="none" fill-rule="evenodd" transform="translate(48.775510, 118.067873)">
                                <ellipse id="Oval" fill="#FF1E45" cx="1.20108206" cy="1.19769002" rx="1.20108206" ry="1.19769002"></ellipse>
                            </g>
                            <ellipse id="Oval-9" stroke="none" fill-opacity="0.29016644" fill="#FFFFFF" fill-rule="evenodd" cx="37.377551" cy="104.524887" rx="1.13265306" ry="1.14027149"></ellipse>
                            <path d="M18.755102,118.798741 L18.755102,165.974511" id="Path-6" stroke="#1164CE" stroke-width="2.28" fill="none" stroke-linecap="round" stroke-linejoin="round"></path>
                            <path d="M55,118.798741 L55,165.974511" id="Path-6" stroke="#1164CE" stroke-width="2.28" fill="none" stroke-linecap="round" stroke-linejoin="round"></path>
                        </g>
                    </g>
                </g>
            </g>
            <path d="M76,130.793401 L77.9359477,135.25574 C77.9359477,135.25574 78.7753461,136.060945 79.6808387,135.502844 C80.5863314,134.944744 80.0585459,133.78113 79.8696923,133.593599 C79.6808387,133.406067 77.9704049,129.420225 77.9704049,129.420225 C77.9704049,129.420225 77.3300828,128.671772 76.3699521,129.172591 C75.4098215,129.67341 76,130.793401 76,130.793401 Z" id="Path-4" fill="#FF1437"></path>
            <path d="M80,130.793401 L81.9359477,135.25574 C81.9359477,135.25574 82.7753461,136.060945 83.6808387,135.502844 C84.5863314,134.944744 84.0585459,133.78113 83.8696923,133.593599 C83.6808387,133.406067 81.9704049,129.420225 81.9704049,129.420225 C81.9704049,129.420225 81.3300828,128.671772 80.3699521,129.172591 C79.4098215,129.67341 80,130.793401 80,130.793401 Z" id="Path-4-Copy" fill="#FF1437"></path>
        </g>
    </g>
</svg>