<?xml version="1.0" encoding="UTF-8"?>
<svg width="77px" height="146px" viewBox="0 0 77 146" version="1.1" xmlns="http://www.w3.org/2000/svg" xmlns:xlink="http://www.w3.org/1999/xlink">
    <!-- Generator: Sketch 43.2 (39069) - http://www.bohemiancoding.com/sketch -->
    <title>splash-char2</title>
    <desc>Created with Sketch.</desc>
    <defs>
        <linearGradient x1="50%" y1="0%" x2="50%" y2="100%" id="linearGradient-1">
            <stop stop-color="#F8B61C" offset="0%"></stop>
            <stop stop-color="#D4750D" offset="100%"></stop>
        </linearGradient>
        <path d="M25.3571429,73.8546513 C45.4734547,73.8546513 50.7142857,62.5807356 50.7142857,48.6736558 C50.7142857,44.0223154 50.7142857,28.4115261 50.7142857,23.4926603 C50.7142857,18.5737945 49.4800261,13.8441793 43.6115972,7.47841841 C37.7431683,1.11265756 29.5820561,0 25.3571429,0 C20.6831252,0 11.8707482,2.07946037 6.06123445,8.84847815 C0.251720741,15.6174959 4.03971216e-13,19.9817944 1.43852508e-13,23.4926603 C-1.15866789e-13,27.0035262 1.43852508e-13,42.4953094 1.43852508e-13,48.6736558 C1.43852508e-13,62.5807356 5.24083106,73.8546513 25.3571429,73.8546513 Z" id="path-2"></path>
        <path d="M25.3571429,87 C45.4734547,87 50.7142857,73.7194463 50.7142857,57.337053 C50.7142857,51.8578231 50.7142857,33.468478 50.7142857,27.674106 C50.7142857,21.879734 49.4800261,16.3082971 43.6115972,8.80949799 C37.7431683,1.31069887 29.5820561,0 25.3571429,0 C20.6831252,0 11.8707482,2.44958238 6.06123445,10.4234139 C0.251720741,18.3972454 4.03971216e-13,23.538343 1.43852508e-13,27.674106 C-1.15866789e-13,31.809869 1.43852508e-13,50.0590262 1.43852508e-13,57.337053 C1.43852508e-13,73.7194463 5.24083106,87 25.3571429,87 Z" id="path-4"></path>
    </defs>
    <g id="Splash/Signup/Login" stroke="none" stroke-width="1" fill="none" fill-rule="evenodd">
        <g id="splash-char2">
            <g id="guy2" transform="translate(3.000000, 4.000000)">
                <path d="M35.3199372,3.97903932e-13 C54.8265999,3.97903932e-13 70.6398745,12.4830103 70.6398745,27.8815838 C70.6398745,33.0317669 58.4721147,57.9416124 58.4721147,63.3880122 C58.4721147,68.834412 41.2048143,71.6562203 35.3199372,71.6562203 C28.8095031,71.6562203 14.670872,69.1173018 14.670872,65.2299058 C14.670872,61.3425097 2.34479103e-13,34.7225398 2.34479103e-13,27.8815838 C2.34479103e-13,12.4830103 15.8132745,3.97903932e-13 35.3199372,3.97903932e-13 Z" id="Combined-Shape" fill="url(#linearGradient-1)"></path>
                <path d="M35.3199372,3.97903932e-13 C54.8265999,3.97903932e-13 70.6398745,12.4830103 70.6398745,27.8815838 C70.6398745,33.0317669 58.4721147,57.9416124 58.4721147,63.3880122 C58.4721147,68.834412 41.2048143,71.6562203 35.3199372,71.6562203 C28.8095031,71.6562203 14.670872,69.1173018 14.670872,65.2299058 C14.670872,61.3425097 2.34479103e-13,34.7225398 2.34479103e-13,27.8815838 C2.34479103e-13,12.4830103 15.8132745,3.97903932e-13 35.3199372,3.97903932e-13 Z" id="Combined-Shape" stroke="#1164CE" stroke-width="2.16" stroke-linecap="round" stroke-linejoin="round"></path>
                <g id="corps" transform="translate(10.142857, 84.895928)">
                    <mask id="mask-3" fill="white">
                        <use xlink:href="#path-2"></use>
                    </mask>
                    <use id="Oval" fill="#FFFFFF" transform="translate(25.357143, 36.927326) scale(1, -1) translate(-25.357143, -36.927326) " xlink:href="#path-2"></use>
                    <g id="Group-6" mask="url(#mask-3)" stroke-linecap="square" stroke="#E4F0FF" stroke-width="2.16">
                        <g transform="translate(-7.244898, 4.316742)">
                            <path d="M0.455550402,1.07918552 L59.6771027,1.07918552" id="Line"></path>
                            <path d="M0.455550402,5.3959276 L59.6771027,5.3959276" id="Line-Copy"></path>
                            <path d="M0.455550402,9.71266968 L59.6771027,9.71266968" id="Line-Copy-2"></path>
                            <path d="M0.455550402,14.0294118 L59.6771027,14.0294118" id="Line-Copy-3"></path>
                            <path d="M0.455550402,18.3461538 L59.6771027,18.3461538" id="Line-Copy-4"></path>
                            <path d="M0.455550402,22.6628959 L59.6771027,22.6628959" id="Line-Copy-5"></path>
                            <path d="M0.455550402,26.979638 L59.6771027,26.979638" id="Line-Copy-6"></path>
                            <path d="M0.455550402,31.2963801 L59.6771027,31.2963801" id="Line-Copy-7" opacity="0.8"></path>
                            <path d="M0.455550402,35.6131222 L59.6771027,35.6131222" id="Line-Copy-8" opacity="0.6"></path>
                            <path d="M0.455550402,39.9298643 L59.6771027,39.9298643" id="Line-Copy-9" opacity="0.4"></path>
                            <path d="M0.455550402,44.2466063 L59.6771027,44.2466063" id="Line-Copy-10" opacity="0.2"></path>
                        </g>
                    </g>
                    <mask id="mask-5" fill="white">
                        <use xlink:href="#path-4"></use>
                    </mask>
                    <use id="Oval" stroke="#1164CE" stroke-width="2.16" stroke-linecap="round" stroke-linejoin="round" transform="translate(25.357143, 43.500000) scale(1, -1) translate(-25.357143, -43.500000) " xlink:href="#path-4"></use>
                    <g id="Group-2" mask="url(#mask-5)">
                        <g transform="translate(15.938776, 0.000000)" id="Group-3">
                            <g>
                                <ellipse id="decolleté-fond" fill="#FFE5CA" cx="9.41836735" cy="6.18155102" rx="9.20976327" ry="6.14986313"></ellipse>
                                <ellipse id="decolleté" stroke="#1164CE" stroke-width="2.16" stroke-linecap="round" stroke-linejoin="round" cx="9.41836735" cy="6.18155102" rx="9.20976327" ry="6.14986313"></ellipse>
                            </g>
                        </g>
                    </g>
                    <g id="bras-droit" mask="url(#mask-5)">
                        <g transform="translate(0.000000, 18.705882)">
                            <rect id="Rectangle" stroke="none" fill="#FFE5CA" fill-rule="evenodd" x="0.724489796" y="3.59728507" width="7.96938776" height="44.2617062"></rect>
                            <polygon id="Path-9" stroke="none" fill="#E9CFB6" fill-rule="evenodd" points="0.701749936 3.89914877 9.17827345 8.70168429 6.86261039 2.87782805 2.95092453 2.87782805"></polygon>
                            <path d="M0.724489796,2.87782805 L7.78391997,2.87782805" id="Path-4" stroke="#1164CE" stroke-width="2.16" fill="none" stroke-linecap="round" stroke-linejoin="round"></path>
                            <path d="M7.72,1.94783876 L7.72,46.6397981" id="Path-6" stroke="#1164CE" stroke-width="2.16" fill="none" stroke-linecap="round" stroke-linejoin="round"></path>
                        </g>
                    </g>
                    <g id="bras-droit" mask="url(#mask-5)">
                        <g transform="translate(44.989796, 42.705882) scale(-1, 1) translate(-44.989796, -42.705882) translate(39.989796, 18.705882)">
                            <rect id="Rectangle" stroke="none" fill="#FFE5CA" fill-rule="evenodd" x="0" y="3.59728507" width="7.96938776" height="44.2617062"></rect>
                            <polygon id="Path-8" stroke="none" fill="#E9CFB6" fill-rule="evenodd" points="0.0435634951 3.65981845 0.0435634951 5.56093884 8.27048038 8.40606878 6.56886438 2.89278963"></polygon>
                            <path d="M0,2.87782805 L7.05943018,2.87782805" id="Path-4" stroke="#1164CE" stroke-width="2.16" fill="none" stroke-linecap="round" stroke-linejoin="round"></path>
                            <path d="M7.72,1.94783876 L7.72,46.6397981" id="Path-6" stroke="#1164CE" stroke-width="2.16" fill="none" stroke-linecap="round" stroke-linejoin="round"></path>
                        </g>
                    </g>
                </g>
                <g id="coups" transform="translate(28.255102, 79.140271)">
                    <polyline fill="#FFE5CA" points="14.4897959 10.0723982 14.4897959 0 0 0 0 10.0378535"></polyline>
                    <polyline stroke="#1164CE" stroke-width="2.16" stroke-linecap="round" stroke-linejoin="round" points="14.4897959 10.0723982 14.4897959 0 0 0 0 10.0378535"></polyline>
                </g>
                <g id="head" transform="translate(1.448980, 7.914027)">
                    <g id="oreilles" transform="translate(0.000000, 39.570136)">
                        <path d="M5.98851846,12.9502262 L11.5918367,12.9502262 L11.5918367,6.47511312 L11.5918367,0 L5.98851846,0 C2.68115104,0 0,2.89900689 0,6.47511312 C0,10.0512194 2.68115104,12.9502262 5.98851846,12.9502262 Z" id="Oval-4" fill="#E9CFB6"></path>
                        <path d="M62.4987225,12.9502262 L68.1020408,12.9502262 L68.1020408,6.47511312 L68.1020408,0 L62.4987225,0 C59.1913551,0 56.5102041,2.89900689 56.5102041,6.47511312 C56.5102041,10.0512194 59.1913551,12.9502262 62.4987225,12.9502262 Z" id="Oval-4-Copy-2" fill="#E9CFB6" transform="translate(62.306122, 6.475113) scale(-1, 1) translate(-62.306122, -6.475113) "></path>
                        <path d="M5.98851846,12.9502262 L11.5918367,12.9502262 L11.5918367,6.47511312 L11.5918367,0 L5.98851846,0 C2.68115104,0 0,2.89900689 0,6.47511312 C0,10.0512194 2.68115104,12.9502262 5.98851846,12.9502262 Z" id="Oval-4" stroke="#1164CE" stroke-width="2.16" stroke-linecap="round" stroke-linejoin="round"></path>
                        <path d="M62.4987225,12.9502262 L68.1020408,12.9502262 L68.1020408,6.47511312 L68.1020408,0 L62.4987225,0 C59.1913551,0 56.5102041,2.89900689 56.5102041,6.47511312 C56.5102041,10.0512194 59.1913551,12.9502262 62.4987225,12.9502262 Z" id="Oval-4-Copy-2" stroke="#1164CE" stroke-width="2.16" stroke-linecap="round" stroke-linejoin="round" transform="translate(62.306122, 6.475113) scale(-1, 1) translate(-62.306122, -6.475113) "></path>
                    </g>
                    <g id="forme" transform="translate(8.693878, 0.000000)">
                        <path d="M25.3571429,73.8546513 C39.3615062,73.8546513 50.7142857,62.5807356 50.7142857,48.6736558 C50.7142857,44.0223154 50.7142857,28.4115261 50.7142857,23.4926603 C50.7142857,18.5737945 49.4800261,13.8441793 43.6115972,7.47841841 C37.7431683,1.11265756 29.5820561,0 25.3571429,0 C20.6831252,0 11.8707482,2.07946037 6.06123445,8.84847815 C0.251720741,15.6174959 3.40023841e-13,19.9817944 7.99040963e-14,23.4926603 C-1.79816178e-13,27.0035262 7.99040963e-14,42.4953094 7.99040963e-14,48.6736558 C7.99040963e-14,62.5807356 11.3527796,73.8546513 25.3571429,73.8546513 Z" id="Oval" fill="#FFE5CA"></path>
                        <path d="M24.7745171,0.446405337 C24.7745171,0.446405337 44.749039,3.05214073 44.749039,28.6128842 C44.749039,54.1736277 48.9612878,68.2631116 27.6470429,72.9669525 C27.6470429,72.9669525 40.2845288,72.689262 44.4642277,65.148277 C48.6439266,57.607292 51.5053558,55.5686916 50.9564467,36.7863863 C50.4075376,18.0040811 50.1280164,15.8486128 44.4642277,7.98739034 C38.800439,0.126167875 24.7745171,0.446405337 24.7745171,0.446405337 Z" id="Path-2" fill="#E9CFB6"></path>
                        <path d="M5.7316567,12.3831351 C5.7316567,12.3831351 39.2917207,23.3730643 50.2680014,30.0612745 C50.2680014,30.0612745 47.934113,20.9724614 47.934113,20.9724614 L14.0819978,10.6658383 L5.7316567,12.3831351 Z" id="Path-14" fill="#E9CFB6"></path>
                        <path d="M25.3571429,73.8546513 C39.3615062,73.8546513 50.7142857,62.5807356 50.7142857,48.6736558 C50.7142857,44.0223154 50.7142857,28.4115261 50.7142857,23.4926603 C50.7142857,18.5737945 49.4800261,13.8441793 43.6115972,7.47841841 C37.7431683,1.11265756 29.5820561,0 25.3571429,0 C20.6831252,0 11.8707482,2.07946037 6.06123445,8.84847815 C0.251720741,15.6174959 3.40023841e-13,19.9817944 7.99040963e-14,23.4926603 C-1.79816178e-13,27.0035262 7.99040963e-14,42.4953094 7.99040963e-14,48.6736558 C7.99040963e-14,62.5807356 11.3527796,73.8546513 25.3571429,73.8546513 Z" id="Oval" stroke="#1164CE" stroke-width="2.16" stroke-linecap="round" stroke-linejoin="round"></path>
                    </g>
                    <g id="nez" transform="translate(31.877551, 48.923077)" stroke="#1164CE" stroke-width="2.16" stroke-linecap="round" stroke-linejoin="round">
                        <path d="M7.10542736e-15,0.058900656 C7.10542736e-15,0.058900656 2.44612474,1.28301164 4.89224947,2.0206059e-14" id="Path-3"></path>
                    </g>
                    <g id="yeux" transform="translate(18.836735, 35.972851)">
                        <g id="Group">
                            <ellipse id="Oval-2" fill="#1164CE" cx="5.07142857" cy="7.19457014" rx="2.89795918" ry="2.87782805"></ellipse>
                            <path d="M0,2.39761403 C0,2.39761403 1.44356422,-0.494363365 6.47263716,0.0740067203" id="Path-2" stroke="#1164CE" stroke-width="2.16" stroke-linecap="round" stroke-linejoin="round"></path>
                        </g>
                        <g id="Group-Copy" transform="translate(26.443878, 5.036199) scale(-1, 1) translate(-26.443878, -5.036199) translate(22.459184, 0.000000)">
                            <ellipse id="Oval-2" fill="#1164CE" cx="5.07142857" cy="7.19457014" rx="2.89795918" ry="2.87782805"></ellipse>
                            <path d="M0,2.39761403 C0,2.39761403 1.44356422,-0.494363365 6.47263716,0.0740067203" id="Path-2" stroke="#1164CE" stroke-width="2.16" stroke-linecap="round" stroke-linejoin="round"></path>
                        </g>
                    </g>
                    <g id="paumettes" opacity="0.463711504" transform="translate(16.663265, 46.764706)" fill="#000000" fill-opacity="0.0929008152">
                        <ellipse id="Oval-3" cx="3.62244898" cy="3.59728507" rx="3.62244898" ry="3.59728507"></ellipse>
                        <ellipse id="Oval-3-Copy" cx="31.1530612" cy="3.59728507" rx="3.62244898" ry="3.59728507"></ellipse>
                    </g>
                    <g id="Group-3" transform="translate(26.806122, 55.398190)">
                        <path d="M7.22147183,7.19457014 C14.4945844,7.19457014 15.227434,4.00345857e-13 14.0183567,1.23400011e-13 C12.8092794,-1.54250013e-13 7.22147183,1.23400011e-13 7.22147183,1.23400011e-13 C7.22147183,1.23400011e-13 1.5210025,7.64497179e-14 0.424586983,1.23400011e-13 C-0.671828539,1.70368502e-13 -0.0516407722,7.19457014 7.22147183,7.19457014 Z" id="Path-8" fill="#E9CFB6"></path>
                        <path d="M7.22147183,7.19457014 C14.4945844,7.19457014 15.227434,4.00345857e-13 14.0183567,1.23400011e-13 C12.8092794,-1.54250013e-13 7.22147183,1.23400011e-13 7.22147183,1.23400011e-13 C7.22147183,1.23400011e-13 1.5210025,7.64497179e-14 0.424586983,1.23400011e-13 C-0.671828539,1.70368502e-13 -0.0516407722,7.19457014 7.22147183,7.19457014 Z" id="Path-8" stroke="#1164CE" stroke-width="2.16" stroke-linecap="round" stroke-linejoin="round"></path>
                    </g>
                </g>
                <g id="Group-4" transform="translate(12.316327, 4.316742)">
                    <path d="M23.2062619,1.20792265e-13 C38.1776308,1.20792265e-13 50.5171416,12.0505383 53.0751137,26.4754165 C53.2303488,27.3508165 39.9841781,23.6109863 26.5452539,20.1666192 C13.1063296,16.7222521 -2.13692431,13.043046 0.292967583,10.298215 C5.88219078,3.98457068 14.0756481,1.20792265e-13 23.2062619,1.20792265e-13 Z" id="Combined-Shape" fill="#F8B61C"></path>
                    <path d="M0,13.6696833 C0,13.6696833 12.2624555,14.6697657 52.5086293,28.3245641" id="Path-11" stroke="#1164CE" stroke-width="2.16" stroke-linecap="round" stroke-linejoin="round"></path>
                </g>
                <path d="M21.7429534,5.80119395 C21.7429534,5.80119395 28.6567418,7.27863613 32.5048548,4.8695156" id="Path-12" stroke="#1164CE" stroke-width="2.16" stroke-linecap="round" stroke-linejoin="round" transform="translate(27.123904, 5.559528) rotate(-14.000000) translate(-27.123904, -5.559528) "></path>
                <path d="M16.6632653,12.5299223 C16.6632653,12.5299223 29.0054423,11.1486748 36.3746879,14.3221336" id="Path-15" stroke="#1164CE" stroke-width="2.16" stroke-linecap="round" stroke-linejoin="round"></path>
            </g>
        </g>
    </g>
</svg>