<?xml version="1.0" encoding="UTF-8"?>
<svg width="85px" height="166px" viewBox="0 0 85 166" version="1.1" xmlns="http://www.w3.org/2000/svg" xmlns:xlink="http://www.w3.org/1999/xlink">
    <!-- Generator: Sketch 43.2 (39069) - http://www.bohemiancoding.com/sketch -->
    <title>Artboard 5</title>
    <desc>Created with Sketch.</desc>
    <defs>
        <linearGradient x1="50%" y1="0%" x2="50%" y2="100%" id="linearGradient-1">
            <stop stop-color="#D07D4B" offset="0%"></stop>
            <stop stop-color="#9E4B19" offset="100%"></stop>
        </linearGradient>
        <path d="M28.044164,82.2013178 C50.2921417,82.2013178 56.0883281,69.6532831 56.0883281,54.1744979 C56.0883281,48.9974873 56.0883281,31.6224482 56.0883281,26.147678 C56.0883281,20.6729077 54.7232776,15.408776 48.2329887,8.32359016 C41.7426998,1.2384043 32.7167788,0 28.044164,0 C22.8748546,0 13.1286561,2.31447011 6.70352548,9.84848689 C0.27839484,17.3825037 4.43767083e-13,22.2400323 1.56084367e-13,26.147678 C-1.31156613e-13,30.0553236 1.56084367e-13,47.2979071 1.56084367e-13,54.1744979 C1.56084367e-13,69.6532831 5.79618638,82.2013178 28.044164,82.2013178 Z" id="path-2"></path>
        <path d="M28.044164,94 C50.2921417,94 56.0883281,79.650896 56.0883281,61.9503791 C56.0883281,56.0302916 56.0883281,36.161344 56.0883281,29.9007582 C56.0883281,23.6401724 54.7232776,17.6204589 48.2329887,9.51830817 C41.7426998,1.4161574 32.7167788,0 28.044164,0 C22.8748546,0 13.1286561,2.64667521 6.70352548,11.2620794 C0.27839484,19.8774836 4.43767083e-13,25.4322327 1.56084367e-13,29.9007582 C-1.31156613e-13,34.3692838 1.56084367e-13,54.0867639 1.56084367e-13,61.9503791 C1.56084367e-13,79.650896 5.79618638,94 28.044164,94 Z" id="path-4"></path>
    </defs>
    <g id="Splash/Signup/Login" stroke="none" stroke-width="1" fill="none" fill-rule="evenodd">
        <g id="Artboard-5">
            <g id="guy3" transform="translate(3.000000, 2.000000)">
                <path d="M39.0626862,0 C60.636412,0 78.1253723,17.4781441 78.1253723,39.0385276 C78.1253723,46.2495801 78.1253723,70.4512535 78.1253723,78.0770551 C78.1253723,85.7028568 76.223995,93.0352602 67.1836785,102.904208 C58.143362,112.773156 45.5711662,114.498128 39.0626862,114.498128 C31.8623606,114.498128 18.2868911,111.274305 9.33733349,100.780181 C0.387775876,90.286057 5.78536393e-13,83.5200106 1.77821849e-13,78.0770551 C-2.22277311e-13,72.6340997 1.77821849e-13,48.6169235 1.77821849e-13,39.0385276 C1.77821849e-13,17.4781441 17.4889603,0 39.0626862,0 Z" id="Combined-Shape" fill="url(#linearGradient-1)"></path>
                <path d="M39.0626862,0 C60.636412,0 78.1253723,17.4781441 78.1253723,39.0385276 C78.1253723,46.2495801 78.1253723,70.4512535 78.1253723,78.0770551 C78.1253723,85.7028568 76.223995,93.0352602 67.1836785,102.904208 C58.143362,112.773156 45.5711662,114.498128 39.0626862,114.498128 C31.8623606,114.498128 18.2868911,111.274305 9.33733349,100.780181 C0.387775876,90.286057 5.78536393e-13,83.5200106 1.77821849e-13,78.0770551 C-2.22277311e-13,72.6340997 1.77821849e-13,48.6169235 1.77821849e-13,39.0385276 C1.77821849e-13,17.4781441 17.4889603,0 39.0626862,0 Z" id="Combined-Shape" stroke="#1164CE" stroke-width="2.4" stroke-linecap="round" stroke-linejoin="round"></path>
                <g id="corps" transform="translate(11.217666, 94.490421)">
                    <mask id="mask-3" fill="white">
                        <use xlink:href="#path-2"></use>
                    </mask>
                    <use id="Oval" fill="#0183D0" transform="translate(28.044164, 41.100659) scale(1, -1) translate(-28.044164, -41.100659) " xlink:href="#path-2"></use>
                    <mask id="mask-5" fill="white">
                        <use xlink:href="#path-4"></use>
                    </mask>
                    <use id="Oval" stroke="#1164CE" stroke-width="2.4" stroke-linecap="round" stroke-linejoin="round" transform="translate(28.044164, 47.000000) scale(1, -1) translate(-28.044164, -47.000000) " xlink:href="#path-4"></use>
                    <g id="Group-2" mask="url(#mask-5)">
                        <g transform="translate(14.422713, -3.203065)" id="Group-3">
                            <g>
                                <ellipse id="decolleté-fond" fill="#FFD5AB" cx="13.6214511" cy="11.962963" rx="13.6214511" ry="11.962963"></ellipse>
                                <path d="M22.1244249,6.30329749 C21.3855667,15.8487556 21.0723776,20.9477801 9.21868428,22.0011318 C8.12009945,22.0987551 13.8761663,23.2539022 12.3923019,23.4443097 C12.3923019,23.4443097 25.6714277,23.8740534 26.7174775,14.5804996 C27.7635274,5.28694568 22.1244249,1.96255513 22.1244249,6.30329749 Z" id="Path-7" fill="#E9BB8D"></path>
                                <ellipse id="decolleté" stroke="#1164CE" stroke-width="2.4" stroke-linecap="round" stroke-linejoin="round" cx="13.6214511" cy="11.962963" rx="13.6214511" ry="11.962963"></ellipse>
                            </g>
                        </g>
                    </g>
                    <g id="bras-droit" mask="url(#mask-5)">
                        <g transform="translate(0.000000, 21.620690)">
                            <rect id="Rectangle" stroke="none" fill="#FFD5AB" fill-rule="evenodd" x="0.80126183" y="3.20306513" width="8.81388013" height="48.9539094"></rect>
                            <polygon id="Path-9" stroke="none" fill="#E9BB8D" fill-rule="evenodd" points="0.776112294 3.53904389 10.1508678 8.88433687 7.58982085 2.40229885 3.26362524 2.40229885"></polygon>
                            <path d="M8.90925655,-1.42108547e-14 C8.90925655,-1.42108547e-14 7.86921047,8.63390514 16.0365383,8.63390514" id="Path-5" stroke="#1164CE" stroke-width="2.4" fill="none" stroke-linecap="round" stroke-linejoin="round"></path>
                            <path d="M0.80126183,2.40229885 L8.60875888,2.40229885" id="Path-4" stroke="#1164CE" stroke-width="2.4" fill="none" stroke-linecap="round" stroke-linejoin="round"></path>
                            <path d="M9.61514196,7.33562363 L9.61514196,57.0300599" id="Path-6" stroke="#1164CE" stroke-width="2.4" fill="none" stroke-linecap="round" stroke-linejoin="round"></path>
                        </g>
                    </g>
                    <g id="bras-droit" mask="url(#mask-5)">
                        <g transform="translate(47.287066, 50.620690) scale(-1, 1) translate(-47.287066, -50.620690) translate(39.287066, 21.620690)">
                            <rect id="Rectangle" stroke="none" fill="#FFD5AB" fill-rule="evenodd" x="0" y="3.20306513" width="8.81388013" height="48.9539094"></rect>
                            <polygon id="Path-8" stroke="none" fill="#E9BB8D" fill-rule="evenodd" points="0.0481797894 3.27266571 0.0481797894 5.38864079 9.14687864 8.55531244 7.26494744 2.41895131"></polygon>
                            <path d="M8.10799472,-1.42108547e-14 C8.10799472,-1.42108547e-14 7.06794864,8.63390514 15.2352764,8.63390514" id="Path-5" stroke="#1164CE" stroke-width="2.4" fill="none" stroke-linecap="round" stroke-linejoin="round"></path>
                            <path d="M0,2.40229885 L7.80749705,2.40229885" id="Path-4" stroke="#1164CE" stroke-width="2.4" fill="none" stroke-linecap="round" stroke-linejoin="round"></path>
                            <path d="M8.81388013,7.33562363 L8.81388013,57.0300599" id="Path-6" stroke="#1164CE" stroke-width="2.4" fill="none" stroke-linecap="round" stroke-linejoin="round"></path>
                        </g>
                    </g>
                </g>
                <g id="coups" transform="translate(31.249211, 89.685824)">
                    <polyline fill="#FFD5AB" points="16.0252366 11.210728 16.0252366 0 0 0 0 11.1722792"></polyline>
                    <polyline stroke="#1164CE" stroke-width="2.4" stroke-linecap="round" stroke-linejoin="round" points="16.0252366 11.210728 16.0252366 0 0 0 0 11.1722792"></polyline>
                </g>
                <g id="head" transform="translate(1.602524, 8.808429)">
                    <g id="oreilles" transform="translate(0.000000, 43.241379)">
                        <path d="M6.62310398,14.4137931 L12.8201893,14.4137931 L12.8201893,7.20689655 L12.8201893,0 L6.62310398,0 C2.96526466,0 0,3.22663749 0,7.20689655 C0,11.1871556 2.96526466,14.4137931 6.62310398,14.4137931 Z" id="Oval-4" fill="#E9BB8D"></path>
                        <path d="M69.1215267,14.4137931 L75.318612,14.4137931 L75.318612,7.20689655 L75.318612,0 L69.1215267,0 C65.4636874,0 62.4984227,3.22663749 62.4984227,7.20689655 C62.4984227,11.1871556 65.4636874,14.4137931 69.1215267,14.4137931 Z" id="Oval-4-Copy-2" fill="#E9BB8D" transform="translate(68.908517, 7.206897) scale(-1, 1) translate(-68.908517, -7.206897) "></path>
                        <path d="M6.62310398,14.4137931 L12.8201893,14.4137931 L12.8201893,7.20689655 L12.8201893,0 L6.62310398,0 C2.96526466,0 0,3.22663749 0,7.20689655 C0,11.1871556 2.96526466,14.4137931 6.62310398,14.4137931 Z" id="Oval-4" stroke="#1164CE" stroke-width="2.4" stroke-linecap="round" stroke-linejoin="round"></path>
                        <path d="M69.1215267,14.4137931 L75.318612,14.4137931 L75.318612,7.20689655 L75.318612,0 L69.1215267,0 C65.4636874,0 62.4984227,3.22663749 62.4984227,7.20689655 C62.4984227,11.1871556 65.4636874,14.4137931 69.1215267,14.4137931 Z" id="Oval-4-Copy-2" stroke="#1164CE" stroke-width="2.4" stroke-linecap="round" stroke-linejoin="round" transform="translate(68.908517, 7.206897) scale(-1, 1) translate(-68.908517, -7.206897) "></path>
                    </g>
                    <g id="forme" transform="translate(9.615142, 0.000000)">
                        <path d="M28.044164,82.2013178 C43.5325282,82.2013178 56.0883281,69.6532831 56.0883281,54.1744979 C56.0883281,48.9974873 56.0883281,31.6224482 56.0883281,26.147678 C56.0883281,20.6729077 54.7232776,15.408776 48.2329887,8.32359016 C41.7426998,1.2384043 32.7167788,0 28.044164,0 C22.8748546,0 13.1286561,2.31447011 6.70352548,9.84848689 C0.27839484,17.3825037 3.79819863e-13,22.2400323 9.21360015e-14,26.147678 C-1.9510606e-13,30.0553236 9.21360015e-14,47.2979071 9.21360015e-14,54.1744979 C9.21360015e-14,69.6532831 12.5557999,82.2013178 28.044164,82.2013178 Z" id="Oval" fill="#FFD5AB"></path>
                        <path d="M27.3997991,0.496855734 C27.3997991,0.496855734 49.4909619,3.39707772 49.4909619,31.8465628 C49.4909619,60.2960479 54.1495702,75.9778515 30.576718,81.2132959 C30.576718,81.2132959 44.5533608,80.9042224 49.17597,72.5109947 C53.7985791,64.117767 56.9632255,61.8487746 56.3561501,40.9437914 C55.7490747,20.0388082 55.4399335,17.6397402 49.17597,8.89008343 C42.9120064,0.140426709 27.3997991,0.496855734 27.3997991,0.496855734 Z" id="Path-2" fill="#E9BB8D"></path>
                        <path d="M6.33902335,13.7826123 C6.33902335,13.7826123 17.0064689,36.3601077 55.5947524,33.4586426 C55.5947524,33.4586426 53.0135487,23.3426593 53.0135487,23.3426593 L15.5742253,11.8712355 L6.33902335,13.7826123 Z" id="Path-14" fill="#E9BB8D"></path>
                        <path d="M28.044164,82.2013178 C43.5325282,82.2013178 56.0883281,69.6532831 56.0883281,54.1744979 C56.0883281,48.9974873 56.0883281,31.6224482 56.0883281,26.147678 C56.0883281,20.6729077 54.7232776,15.408776 48.2329887,8.32359016 C41.7426998,1.2384043 32.7167788,0 28.044164,0 C22.8748546,0 13.1286561,2.31447011 6.70352548,9.84848689 C0.27839484,17.3825037 3.79819863e-13,22.2400323 9.21360015e-14,26.147678 C-1.9510606e-13,30.0553236 9.21360015e-14,47.2979071 9.21360015e-14,54.1744979 C9.21360015e-14,69.6532831 12.5557999,82.2013178 28.044164,82.2013178 Z" id="Oval" stroke="#1164CE" stroke-width="2.4" stroke-linecap="round" stroke-linejoin="round"></path>
                    </g>
                    <g id="nez" transform="translate(35.255521, 54.452107)" stroke="#1164CE" stroke-width="2.4" stroke-linecap="round" stroke-linejoin="round">
                        <path d="M7.10542736e-15,0.0655573001 C7.10542736e-15,0.0655573001 2.70533332,1.42801091 5.41066663,2.26485497e-14" id="Path-3"></path>
                    </g>
                    <g id="yeux" transform="translate(22.435331, 44.842912)" stroke="#1164CE" stroke-width="2.4" stroke-linecap="round" stroke-linejoin="round">
                        <path d="M0,2.40229885 C0,2.40229885 1.18946053,3.56284765e-14 3.67350191,3.55271368e-14 C6.15754329,3.55271368e-14 7.21135647,2.40229885 7.21135647,2.40229885" id="Path-7-Copy"></path>
                        <path d="M23.2365931,2.40229885 C23.2365931,2.40229885 24.4260536,3.56284765e-14 26.910095,3.55271368e-14 C29.3941364,3.55271368e-14 30.4479495,2.40229885 30.4479495,2.40229885" id="Path-7-Copy-3"></path>
                    </g>
                    <g id="bouche" transform="translate(29.646688, 63.260536)" stroke="#1164CE" stroke-width="2.4" stroke-linecap="round" stroke-linejoin="round">
                        <path d="M7.21135647,6.47168757 C7.21135647,6.47168757 8.96078559,6.99147417 10.4164038,6.40613027" id="Path-3-Copy-2"></path>
                        <path d="M0.702178743,0.259051065 C0.702178743,0.259051065 8.31416612,4.09258227 15.9261535,0.0745927072" id="Path-3-Copy"></path>
                    </g>
                    <g id="paumettes-copy" transform="translate(18.429022, 52.850575)" fill="#E9BB8D">
                        <ellipse id="Oval-3" cx="4.00630915" cy="4.00383142" rx="4.00630915" ry="4.00383142"></ellipse>
                        <ellipse id="Oval-3-Copy" cx="34.4542587" cy="4.00383142" rx="4.00630915" ry="4.00383142"></ellipse>
                    </g>
                </g>
                <g id="Group-4" transform="translate(13.621451, 4.804598)">
                    <path d="M25.6653607,1.0658141e-13 C42.223201,1.0658141e-13 55.8702932,13.4124271 58.6993259,29.4675296 C58.8710109,30.4418628 42.7175655,34.7047001 27.8545583,30.8710686 C12.0933872,26.8057727 -2.36336783,14.5171028 0.324012488,11.4620654 C6.50550908,4.43488603 15.5672028,1.0658141e-13 25.6653607,1.0658141e-13 Z" id="Combined-Shape" fill="#C57240"></path>
                    <path d="M0,15.2145594 C0,15.2145594 16.4037216,37.8462977 58.072813,31.5256582" id="Path-11" stroke="#1164CE" stroke-width="2.4" stroke-linecap="round" stroke-linejoin="round"></path>
                    <path d="M32.0504732,18.4176245 C32.0504732,18.4176245 38.6545625,27.5290948 55.4304143,24.9844242" id="Path-11-Copy" stroke="#1164CE" stroke-width="2.4" stroke-linecap="round" stroke-linejoin="round"></path>
                </g>
                <path d="M64.9022082,23.4584277 C64.9022082,23.4584277 72.5486303,25.1028427 76.8045163,22.4214559" id="Path-12" stroke="#1164CE" stroke-width="2.4" stroke-linecap="round" stroke-linejoin="round"></path>
                <path d="M71.314208,80.0766284 C71.314208,80.0766284 71.0124636,88.0941861 78.0039186,91.0171694" id="Path-13" stroke="#1164CE" stroke-width="2.4" stroke-linecap="round" stroke-linejoin="round"></path>
            </g>
        </g>
    </g>
</svg>