<?xml version="1.0" encoding="UTF-8"?>
<svg width="225px" height="70px" viewBox="0 0 225 70" version="1.1" xmlns="http://www.w3.org/2000/svg" xmlns:xlink="http://www.w3.org/1999/xlink">
    <!-- Generator: Sketch 43.2 (39069) - http://www.bohemiancoding.com/sketch -->
    <title>Artboard 5</title>
    <desc>Created with Sketch.</desc>
    <defs>
        <linearGradient x1="2.61397947%" y1="-1.76532307%" x2="97.2719667%" y2="97.1492911%" id="linearGradient-1">
            <stop stop-color="#FE2424" offset="0%"></stop>
            <stop stop-color="#FF1966" offset="100%"></stop>
        </linearGradient>
        <path d="M59.2636148,22.6381791 L57.3243634,25.6421965 C57.0438918,26.0766641 56.6395804,26.0456252 56.4228115,25.5761241 L53.3306359,18.8787637 C52.6052633,17.690732 52.1877989,16.2976046 52.1877989,14.8078981 C52.1877989,10.4571846 55.748528,6.93023453 60.1409099,6.93023453 C64.5332918,6.93023453 68.0940208,10.4571846 68.0940208,14.8078981 C68.0940208,19.1586115 64.5332918,22.6855616 60.1409099,22.6855616 C59.8444087,22.6855616 59.5516972,22.6694902 59.2636148,22.6381791 Z M52.3840732,50.605804 C48.3477754,52.4028796 43.6455875,50.6475906 41.8814427,46.6852564 C41.7859517,46.4707802 28.9381625,17.537841 28.7677369,17.1550587 C26.7055809,12.5233804 29.0428963,8.45542415 32.8607143,6.75562206 C36.6183961,5.08259433 41.3277279,6.10409936 43.3561013,10.6599005 C43.5943328,11.1949773 56.3763953,39.9039597 56.49817,40.1774701 C58.2623148,44.1398044 56.420371,48.8087285 52.3840732,50.605804 Z M29.3840732,50.605804 C25.3477754,52.4028796 20.6455875,50.6475906 18.8814427,46.6852564 C18.7859517,46.4707802 5.93816254,17.537841 5.7677369,17.1550587 C3.70558086,12.5233804 6.04289628,8.45542415 9.86071429,6.75562206 C13.6183961,5.08259433 18.3277279,6.10409936 20.3561013,10.6599005 C20.5943328,11.1949773 33.3763953,39.9039597 33.49817,40.1774701 C35.2623148,44.1398044 33.420371,48.8087285 29.3840732,50.605804 Z M86.8961184,48.3209595 C84.7118758,50.1516765 81.8770077,51.2958746 78.2520945,51.2958746 C70.7699017,51.2958746 65.2395854,46.1240991 65.2395854,38.6181595 L65.2395854,38.5266236 C65.2395854,31.5241311 70.3051693,25.7573726 77.5549958,25.7573726 C85.873707,25.7573726 89.5450935,32.4852575 89.5450935,37.5654972 C89.5450935,39.5792859 88.1044228,40.9065557 86.2454929,40.9065557 L72.2570456,40.9065557 C72.9541443,44.0645425 75.1848602,45.7121878 78.345041,45.7121878 C80.2969173,45.7121878 81.923481,45.1172048 83.3641516,44.0645425 C83.8753574,43.6983991 84.3400898,43.5153274 85.0836618,43.5153274 C86.6637522,43.5153274 87.8255833,44.7052934 87.8255833,46.2614029 C87.8255833,47.1767614 87.4073241,47.8632803 86.8961184,48.3209595 Z M72.1640991,36.5586028 L82.8064727,36.5586028 C82.3882135,33.446384 80.5292836,31.3410594 77.5549958,31.3410594 C74.6271812,31.3410594 72.7217781,33.400616 72.1640991,36.5586028 Z M115.384219,48.3209595 C113.199976,50.1516765 110.365108,51.2958746 106.740195,51.2958746 C99.2580021,51.2958746 93.7276857,46.1240991 93.7276857,38.6181595 L93.7276857,38.5266236 C93.7276857,31.5241311 98.7932696,25.7573726 106.043096,25.7573726 C114.361807,25.7573726 118.033194,32.4852575 118.033194,37.5654972 C118.033194,39.5792859 116.592523,40.9065557 114.733593,40.9065557 L100.745146,40.9065557 C101.442245,44.0645425 103.672961,45.7121878 106.833141,45.7121878 C108.785018,45.7121878 110.411581,45.1172048 111.852252,44.0645425 C112.363458,43.6983991 112.82819,43.5153274 113.571762,43.5153274 C115.151853,43.5153274 116.313684,44.7052934 116.313684,46.2614029 C116.313684,47.1767614 115.895424,47.8632803 115.384219,48.3209595 Z M100.652199,36.5586028 L111.294573,36.5586028 C110.876314,33.446384 109.017384,31.3410594 106.043096,31.3410594 C103.115282,31.3410594 101.209878,33.400616 100.652199,36.5586028 Z M123.42409,54.8657727 L123.42409,29.4188066 C123.42409,27.4965537 125.004181,25.9404443 126.956057,25.9404443 C128.907934,25.9404443 130.488024,27.4965537 130.488024,29.4188066 L130.488024,29.7391821 C132.207534,27.4507858 134.57767,25.7573726 138.249056,25.7573726 C144.058212,25.7573726 149.588528,30.2426292 149.588528,38.4350878 L149.588528,38.5266236 C149.588528,46.7190821 144.151159,51.2043388 138.249056,51.2043388 C134.484723,51.2043388 132.161061,49.5109255 130.488024,47.5429048 L130.488024,54.8657727 C130.488024,56.7880256 128.907934,58.344135 126.956057,58.344135 C125.004181,58.344135 123.42409,56.7880256 123.42409,54.8657727 Z M136.4366,45.3002765 C139.7362,45.3002765 142.524595,42.6457368 142.524595,38.5266236 L142.524595,38.4350878 C142.524595,34.3617425 139.7362,31.6614349 136.4366,31.6614349 C133.136999,31.6614349 130.395077,34.3617425 130.395077,38.4350878 L130.395077,38.5266236 C130.395077,42.5999689 133.136999,45.3002765 136.4366,45.3002765 Z M155.118845,47.5429048 L155.118845,20.5398292 C155.118845,18.6175763 156.698935,17.0614669 158.650812,17.0614669 C160.602688,17.0614669 162.182778,18.6175763 162.182778,20.5398292 L162.182778,47.5429048 C162.182778,49.4651576 160.602688,51.0212671 158.650812,51.0212671 C156.698935,51.0212671 155.118845,49.4651576 155.118845,47.5429048 Z M175.892386,51.2043388 C171.198588,51.2043388 167.341309,48.5497991 167.341309,43.6983991 L167.341309,43.6068633 C167.341309,38.2520161 171.477428,35.7805481 177.37953,35.7805481 C179.889085,35.7805481 181.701542,36.1924594 183.467525,36.7874425 L183.467525,36.3755311 C183.467525,33.4921519 181.655069,31.8902745 178.123102,31.8902745 C176.171226,31.8902745 174.591135,32.1648821 173.243411,32.5767934 C172.825152,32.7140972 172.546312,32.7598651 172.221,32.7598651 C170.594436,32.7598651 169.293185,31.5241311 169.293185,29.9222538 C169.293185,28.6865198 170.08323,27.6338575 171.198588,27.2219462 C173.429304,26.3981235 175.845913,25.9404443 179.145513,25.9404443 C183.002793,25.9404443 185.791188,26.9473386 187.557171,28.6865198 C189.416101,30.5172368 190.252619,33.2175443 190.252619,36.5128349 L190.252619,47.6802086 C190.252619,49.5566935 188.719002,51.0212671 186.813599,51.0212671 C184.768776,51.0212671 183.421052,49.6024614 183.421052,48.1378878 L183.421052,48.0921199 C181.701542,49.9686048 179.331406,51.2043388 175.892386,51.2043388 Z M178.030156,46.3987067 C181.329756,46.3987067 183.560472,44.6137576 183.560472,42.0965217 L183.560472,40.8607878 C182.352168,40.3115727 180.772077,39.9454293 179.052567,39.9454293 C176.031806,39.9454293 174.172876,41.1353953 174.172876,43.3322557 L174.172876,43.4237916 C174.172876,45.3002765 175.752966,46.3987067 178.030156,46.3987067 Z M196.340615,47.5429048 L196.340615,29.4188066 C196.340615,27.4965537 197.920705,25.9404443 199.872582,25.9404443 C201.824458,25.9404443 203.404548,27.4965537 203.404548,29.4188066 L203.404548,29.6934141 C205.031112,27.6338575 207.122408,25.7573726 210.700848,25.7573726 C216.045272,25.7573726 219.158979,29.2357349 219.158979,34.8651896 L219.158979,47.5429048 C219.158979,49.4651576 217.578889,51.0212671 215.627012,51.0212671 C213.675136,51.0212671 212.095046,49.4651576 212.095046,47.5429048 L212.095046,37.06205 C212.095046,33.7667594 210.514955,32.0733462 207.819507,32.0733462 C205.124058,32.0733462 203.404548,33.7667594 203.404548,37.06205 L203.404548,47.5429048 C203.404548,49.4651576 201.824458,51.0212671 199.872582,51.0212671 C197.920705,51.0212671 196.340615,49.4651576 196.340615,47.5429048 Z" id="path-2"></path>
        <filter x="-9.8%" y="-28.7%" width="119.6%" height="180.2%" filterUnits="objectBoundingBox" id="filter-3">
            <feOffset dx="0" dy="6" in="SourceAlpha" result="shadowOffsetOuter1"></feOffset>
            <feGaussianBlur stdDeviation="6" in="shadowOffsetOuter1" result="shadowBlurOuter1"></feGaussianBlur>
            <feColorMatrix values="0 0 0 0 0   0 0 0 0 0   0 0 0 0 0  0 0 0 0.1 0" type="matrix" in="shadowBlurOuter1"></feColorMatrix>
        </filter>
    </defs>
    <g id="Splash/Signup/Login" stroke="none" stroke-width="1" fill="none" fill-rule="evenodd">
        <g id="Artboard-5">
            <g id="Combined-Shape-Copy">
                <use fill="black" fill-opacity="1" filter="url(#filter-3)" xlink:href="#path-2"></use>
                <use fill="url(#linearGradient-1)" fill-rule="evenodd" xlink:href="#path-2"></use>
            </g>
        </g>
    </g>
</svg>