<?xml version="1.0" encoding="UTF-8"?>
<svg width="300px" height="166px" viewBox="0 0 300 166" version="1.1" xmlns="http://www.w3.org/2000/svg" xmlns:xlink="http://www.w3.org/1999/xlink">
    <!-- Generator: Sketch 43.2 (39069) - http://www.bohemiancoding.com/sketch -->
    <title>splash-bg1</title>
    <desc>Created with Sketch.</desc>
    <defs></defs>
    <g id="Splash/Signup/Login" stroke="none" stroke-width="1" fill="none" fill-rule="evenodd">
        <g id="splash-bg1">
            <path d="M120.5,70 C118.567003,70 117,68.4329966 117,66.5 C117,64.5670034 118.567003,63 120.5,63 C122.432997,63 124,64.5670034 124,66.5 C124,68.4329966 122.432997,70 120.5,70 Z M120.5,68.8333333 C121.788664,68.8333333 122.833333,67.7886644 122.833333,66.5 C122.833333,65.2113356 121.788664,64.1666667 120.5,64.1666667 C119.211336,64.1666667 118.166667,65.2113356 118.166667,66.5 C118.166667,67.7886644 119.211336,68.8333333 120.5,68.8333333 Z" id="Combined-Shape-Copy-6" fill="#D7C5F1"></path>
            <path d="M224,16 C222.343146,16 221,14.6568542 221,13 C221,11.3431458 222.343146,10 224,10 C225.656854,10 227,11.3431458 227,13 C227,14.6568542 225.656854,16 224,16 Z M224,15 C225.104569,15 226,14.1045695 226,13 C226,11.8954305 225.104569,11 224,11 C222.895431,11 222,11.8954305 222,13 C222,14.1045695 222.895431,15 224,15 Z" id="Combined-Shape-Copy-15" fill="#A0E793"></path>
            <circle id="Oval-7-Copy-5" fill="#E7EEF8" cx="218.5" cy="95.5" r="2.5"></circle>
            <circle id="Oval-7-Copy-9" fill="#E7EEF8" cx="265.5" cy="45.5" r="2.5"></circle>
            <path d="M100.083333,103.916667 L100.083333,101.584776 C100.083333,101.265861 99.8221661,101 99.5,101 C99.1872559,101 98.9166667,101.261813 98.9166667,101.584776 L98.9166667,103.916667 L96.5847761,103.916667 C96.2658606,103.916667 96,104.177834 96,104.5 C96,104.812744 96.2618132,105.083333 96.5847761,105.083333 L98.9166667,105.083333 L98.9166667,107.415224 C98.9166667,107.734139 99.1778339,108 99.5,108 C99.8127441,108 100.083333,107.738187 100.083333,107.415224 L100.083333,105.083333 L102.415224,105.083333 C102.734139,105.083333 103,104.822166 103,104.5 C103,104.187256 102.738187,103.916667 102.415224,103.916667 L100.083333,103.916667 Z" id="Combined-Shape-Copy-13" fill="#E3EBF7"></path>
            <path d="M161.25,21.75 L161.25,18.751855 C161.25,18.3418207 160.914214,18 160.5,18 C160.082899,18 159.75,18.3366169 159.75,18.751855 L159.75,21.75 L156.751855,21.75 C156.341821,21.75 156,22.0857864 156,22.5 C156,22.9171014 156.336617,23.25 156.751855,23.25 L159.75,23.25 L159.75,26.248145 C159.75,26.6581793 160.085786,27 160.5,27 C160.917101,27 161.25,26.6633831 161.25,26.248145 L161.25,23.25 L164.248145,23.25 C164.658179,23.25 165,22.9142136 165,22.5 C165,22.0828986 164.663383,21.75 164.248145,21.75 L161.25,21.75 Z" id="Combined-Shape-Copy-3" fill="#E1EBFF" transform="translate(160.500000, 22.500000) rotate(45.000000) translate(-160.500000, -22.500000) "></path>
            <path d="M85.6948413,8.86150793 L85.6948413,5.19710845 C85.6948413,4.69595547 85.2844356,4.27817459 84.7781746,4.27817459 C84.268384,4.27817459 83.8615079,4.68959529 83.8615079,5.19710845 L83.8615079,8.86150793 L80.1971084,8.86150793 C79.6959555,8.86150793 79.2781746,9.27191357 79.2781746,9.77817459 C79.2781746,10.2879652 79.6895953,10.6948413 80.1971084,10.6948413 L83.8615079,10.6948413 L83.8615079,14.3592407 C83.8615079,14.8603937 84.2719136,15.2781746 84.7781746,15.2781746 C85.2879652,15.2781746 85.6948413,14.8667539 85.6948413,14.3592407 L85.6948413,10.6948413 L89.3592407,10.6948413 C89.8603937,10.6948413 90.2781746,10.2844356 90.2781746,9.77817459 C90.2781746,9.26838401 89.8667539,8.86150793 89.3592407,8.86150793 L85.6948413,8.86150793 Z" id="Combined-Shape-Copy-4" fill="#ABE9A0" transform="translate(84.778175, 9.778175) rotate(45.000000) translate(-84.778175, -9.778175) "></path>
            <path d="M3.74264069,74.7426407 L3.74264069,72.7134506 C3.74264069,72.4561839 3.52927297,72.2426407 3.26607056,72.2426407 L3.21921082,72.2426407 C2.95471497,72.2426407 2.74264069,72.4534295 2.74264069,72.7134506 L2.74264069,74.7426407 L0.713450624,74.7426407 C0.456183864,74.7426407 0.242640687,74.9560084 0.242640687,75.2192108 L0.242640687,75.2660706 C0.242640687,75.5305664 0.453429476,75.7426407 0.713450624,75.7426407 L2.74264069,75.7426407 L2.74264069,77.7718308 C2.74264069,78.0290975 2.9560084,78.2426407 3.21921082,78.2426407 L3.26607056,78.2426407 C3.53056641,78.2426407 3.74264069,78.0318519 3.74264069,77.7718308 L3.74264069,75.7426407 L5.77183075,75.7426407 C6.02909751,75.7426407 6.24264069,75.529273 6.24264069,75.2660706 L6.24264069,75.2192108 C6.24264069,74.954715 6.0318519,74.7426407 5.77183075,74.7426407 L3.74264069,74.7426407 Z" id="Combined-Shape-Copy-4" fill="#DCCDF2" transform="translate(3.242641, 75.242641) rotate(45.000000) translate(-3.242641, -75.242641) "></path>
            <path d="M28.5330808,150.366414 L28.5330808,148.022587 C28.5330808,147.715608 28.2719136,147.449747 27.9497475,147.449747 C27.6253353,147.449747 27.3664141,147.706216 27.3664141,148.022587 L27.3664141,150.366414 L25.0225868,150.366414 C24.715608,150.366414 24.4497475,150.627581 24.4497475,150.949747 C24.4497475,151.27416 24.7062164,151.533081 25.0225868,151.533081 L27.3664141,151.533081 L27.3664141,153.876908 C27.3664141,154.183887 27.6275814,154.449747 27.9497475,154.449747 C28.2741597,154.449747 28.5330808,154.193279 28.5330808,153.876908 L28.5330808,151.533081 L30.8769081,151.533081 C31.1838869,151.533081 31.4497475,151.271914 31.4497475,150.949747 C31.4497475,150.625335 31.1932785,150.366414 30.8769081,150.366414 L28.5330808,150.366414 Z" id="Combined-Shape-Copy-11" fill="#B5EBAC" transform="translate(27.949747, 150.949747) rotate(45.000000) translate(-27.949747, -150.949747) "></path>
            <path d="M274.5,165 C272.014719,165 270,162.985281 270,160.5 C270,158.014719 272.014719,156 274.5,156 C276.985281,156 279,158.014719 279,160.5 C279,162.985281 276.985281,165 274.5,165 Z M274.5,163.5 C276.156854,163.5 277.5,162.156854 277.5,160.5 C277.5,158.843146 276.156854,157.5 274.5,157.5 C272.843146,157.5 271.5,158.843146 271.5,160.5 C271.5,162.156854 272.843146,163.5 274.5,163.5 Z" id="Combined-Shape-Copy-10" fill="#E7EEF8"></path>
            <circle id="Oval-7-Copy-8" fill="#D7C5F1" cx="168.5" cy="98.5" r="2.5"></circle>
            <g id="Group-8-Copy" transform="translate(215.000000, 57.344611) rotate(10.000000) translate(-215.000000, -57.344611) translate(197.000000, 38.844611)">
                <circle id="Oval-11" fill="#91B1D8" cx="16" cy="16" r="16"></circle>
                <path d="M14.5188663,31.9452602 C14.5188663,31.9452602 11.106435,23.5676293 15.534382,22.6088631 C19.9623289,21.6500968 21.1391324,18.020375 20.7792217,15.8437367 C20.419311,13.6670983 26.6154499,8.41255148 30.735382,11.594625 C34.8553141,14.7766985 29.6097277,24.2206208 26.8480478,25.0759688 C24.0863679,25.9313167 20.4021368,30.9499055 17.7252077,31.4475829 C15.0482785,31.9452602 14.5188663,31.9452602 14.5188663,31.9452602 Z" id="Path-20" fill="#7FA6D2"></path>
                <circle id="Oval-11" stroke="#413A34" stroke-width="2" stroke-linecap="round" stroke-linejoin="round" cx="16" cy="16" r="16"></circle>
                <circle id="Oval-11" fill="#FFFFFF" cx="16" cy="16" r="5"></circle>
                <circle id="Oval-11" stroke="#413A34" stroke-width="2" stroke-linecap="round" stroke-linejoin="round" cx="16" cy="16" r="5"></circle>
                <circle id="Oval-11" stroke="#413A34" stroke-width="2" stroke-linecap="round" stroke-linejoin="round" cx="16" cy="16" r="1"></circle>
                <path d="M4.37384567,16.9304216 C4.37384567,16.9304216 3.56816674,5.95722685 15.8844909,4.62767448" id="Path-38" stroke="#413A34" stroke-width="2" stroke-linecap="round" stroke-linejoin="round"></path>
                <g id="Group-7" transform="translate(17.000000, 13.000000)"></g>
                <g id="Group-7" transform="translate(17.000000, 13.000000)">
                    <path d="M12.5869774,23.2538598 C9.68302957,23.2538598 6.09213461,22.5270799 2.28735913,16.9211929 C-1.51741636,11.315306 1.76424712,10.2260284 2.88430913,11.3291367 C4.00437114,12.4322449 4.98924941,13.4731152 5.07647193,12.5680979 C5.16369444,11.6630807 5.07647193,3.90071665 5.07647193,3.90071665 C5.07647193,3.90071665 5.22532295,2.26918189 6.46793813,1.92781119 C7.71055331,1.58644048 8.48041201,2.90533168 8.48041201,2.90533168 C8.48041201,2.90533168 8.06500588,0.837053776 9.89132488,0.646993462 C11.7176439,0.456933149 12.0822924,1.92781119 12.0822924,1.92781119 C12.0822924,1.92781119 12.9006215,0.890319307 14.3247354,1.41923128 C15.7488493,1.94814326 15.5162623,3.90071665 15.5162623,3.90071665 C15.5162623,3.90071665 18.9515441,2.80631465 18.9644824,5.34736751 C18.9774208,7.88842037 18.9644824,15.6356121 18.9644824,16.5604799 C18.9644824,17.4853476 17.9456967,23.2538598 12.5869774,23.2538598 Z" id="Path-37" fill="#FFFFFF"></path>
                    <path d="M12.5869774,23.2538598 C9.68302957,23.2538598 6.09213461,22.5270799 2.28735913,16.9211929 C-1.51741636,11.315306 1.76424712,10.2260284 2.88430913,11.3291367 C4.00437114,12.4322449 4.98924941,13.4731152 5.07647193,12.5680979 C5.16369444,11.6630807 5.07647193,3.90071665 5.07647193,3.90071665 C5.07647193,3.90071665 5.22532295,2.26918189 6.46793813,1.92781119 C7.71055331,1.58644048 8.48041201,2.90533168 8.48041201,2.90533168 C8.48041201,2.90533168 8.06500588,0.837053776 9.89132488,0.646993462 C11.7176439,0.456933149 12.0822924,1.92781119 12.0822924,1.92781119 C12.0822924,1.92781119 12.9006215,0.890319307 14.3247354,1.41923128 C15.7488493,1.94814326 15.5162623,3.90071665 15.5162623,3.90071665 C15.5162623,3.90071665 18.9515441,2.80631465 18.9644824,5.34736751 C18.9774208,7.88842037 18.9644824,15.6356121 18.9644824,16.5604799 C18.9644824,17.4853476 17.9456967,23.2538598 12.5869774,23.2538598 Z" id="Path-37" stroke="#413A34" stroke-width="2" stroke-linecap="round" stroke-linejoin="round"></path>
                    <path d="M8.5,2.5 L8.5,11.0146932" id="Line" stroke="#413A34" stroke-width="2" stroke-linecap="round" stroke-linejoin="round"></path>
                    <path d="M12,2.5 L12,11.0146932" id="Line-Copy-6" stroke="#413A34" stroke-width="2" stroke-linecap="round" stroke-linejoin="round"></path>
                    <path d="M15.5,3.98220284 L15.5,11.0146932" id="Line-Copy-7" stroke="#413A34" stroke-width="2" stroke-linecap="round" stroke-linejoin="round"></path>
                </g>
            </g>
            <g id="Group-2" transform="translate(66.000000, 45.000000)">
                <g id="Group-Copy" transform="translate(18.500000, 20.500000) rotate(6.000000) translate(-18.500000, -20.500000) translate(2.000000, 2.000000)">
                    <rect id="Rectangle" fill="#FFFAB3" x="4" y="11" width="22" height="26" rx="3"></rect>
                    <path d="M21.8545868,13.1885547 L21.8545868,36.256917 C21.8545868,36.256917 26.4225347,37.0856277 26.146419,33.0504449 C25.8703032,29.015262 25.6023839,12.1527365 25.6023839,12.1527365 L21.8545868,13.1885547 Z" id="Path-2" fill="#F8E500"></path>
                    <rect id="Rectangle-2" fill="#F8E300" x="18" y="18" width="3" height="15" rx="1.5"></rect>
                    <rect id="Rectangle-2-Copy-2" fill="#F8E300" x="12" y="18" width="3" height="15" rx="1.5"></rect>
                    <rect id="Rectangle-2-Copy" fill="#F8E300" x="6" y="18" width="3" height="15" rx="1.5"></rect>
                    <polygon id="Path-3" fill="#F8E300" points="24.7355742 16.8345823 11.3574826 16.8345823 12.0809827 13.6290969 26.163073 14.4870889"></polygon>
                    <rect id="Rectangle" stroke="#413A34" stroke-width="2" stroke-linecap="round" stroke-linejoin="round" x="4" y="11" width="22" height="26" rx="3"></rect>
                    <path d="M9,19.5 L9,31.5" id="Line" stroke="#413A34" stroke-width="2" stroke-linecap="round" stroke-linejoin="round"></path>
                    <path d="M15,19.5 L15,31.5" id="Line-Copy" stroke="#413A34" stroke-width="2" stroke-linecap="round" stroke-linejoin="round"></path>
                    <path d="M21,19.5 L21,31.5" id="Line-Copy-2" stroke="#413A34" stroke-width="2" stroke-linecap="round" stroke-linejoin="round"></path>
                    <path d="M26,16.1737423 C26,16.1737423 32.9208584,14.4945614 32.8978156,19.5986981 C32.8747729,24.7028349 33.5270627,31.9091758 26.5568087,31.9033291" id="Path-10" stroke="#413A34" stroke-width="2" stroke-linecap="round" stroke-linejoin="round"></path>
                    <path d="M10.9768045,13.4856706 C16.889071,13.5660594 24.5779486,13.6555299 25.8687961,13.5972803 C28.0121665,13.5005606 29.796507,12.9687928 28.5655645,9.28489907 C27.3346219,5.60100537 23.4346742,5.93649562 23.4346742,5.93649562 C23.4346742,5.93649562 24.1180978,2.52953599 19.5843139,1.20265061 C15.0505299,-0.124234757 13.1318372,3.91052788 13.1318372,3.91052788 C13.1318372,3.91052788 11.2581408,2.60367581 9.19636951,2.52096219 C4.05022173,2.31451032 4.18940794,6.77329841 4.18940794,6.77329841 C4.18940794,6.77329841 0.910032398,5.87510035 0.28224892,9.28489907 C-0.345534559,12.6946978 3.94236488,13.3834482 3.94236488,13.3834482 C3.94236488,13.3834482 4.17669538,13.3871267 4.5971129,13.3935583 C4.48971744,14.6419381 4.66151723,16.325452 6.36948851,16.325452 C6.36948851,16.325452 6.68770604,19.1429009 8.11655494,19.218451 C9.54540384,19.2940011 10.8932904,18.8395675 11.0193367,15.7344382 C11.0542305,14.8748351 11.0300402,14.1232159 10.9768045,13.4856706 Z" id="Combined-Shape" fill="#FFFFFF"></path>
                    <path d="M14.5075665,3.0475771 C14.5075665,3.0475771 19.2479022,1.95476721 20.0719161,4.23439215 C20.89593,6.51401708 20.593351,7.97676242 24.0486698,8.62032001 C27.5039886,9.2638776 25.2524813,13.4126943 25.2524813,13.4126943 C25.2524813,13.4126943 30.6976458,12.6887707 28.6956298,9.78216493 C26.6936138,6.87555921 23.7269959,5.71476345 23.7269959,5.71476345 C23.7269959,5.71476345 22.5569675,0.991004574 18.9148974,1.51852456 C15.2728272,2.04604454 14.5075665,3.0475771 14.5075665,3.0475771 Z" id="Path-21" fill="#F2F2F2"></path>
                    <path d="M10.9768045,13.4856706 C16.889071,13.5660594 24.5779486,13.6555299 25.8687961,13.5972803 C28.0121665,13.5005606 29.796507,12.9687928 28.5655645,9.28489907 C27.3346219,5.60100537 23.4346742,5.93649562 23.4346742,5.93649562 C23.4346742,5.93649562 24.1180978,2.52953599 19.5843139,1.20265061 C15.0505299,-0.124234757 13.1318372,3.91052788 13.1318372,3.91052788 C13.1318372,3.91052788 11.2581408,2.60367581 9.19636951,2.52096219 C4.05022173,2.31451032 4.18940794,6.77329841 4.18940794,6.77329841 C4.18940794,6.77329841 0.910032398,5.87510035 0.28224892,9.28489907 C-0.345534559,12.6946978 3.94236488,13.3834482 3.94236488,13.3834482 C3.94236488,13.3834482 4.17669538,13.3871267 4.5971129,13.3935583 C4.48971744,14.6419381 4.66151723,16.325452 6.36948851,16.325452 C6.36948851,16.325452 6.68770604,19.1429009 8.11655494,19.218451 C9.54540384,19.2940011 10.8932904,18.8395675 11.0193367,15.7344382 C11.0542305,14.8748351 11.0300402,14.1232159 10.9768045,13.4856706 Z" id="Combined-Shape" stroke="#413A34" stroke-width="2" stroke-linecap="round" stroke-linejoin="round"></path>
                </g>
            </g>
        </g>
    </g>
</svg>