<?xml version="1.0" encoding="UTF-8"?>
<svg width="77px" height="146px" viewBox="0 0 77 146" version="1.1" xmlns="http://www.w3.org/2000/svg" xmlns:xlink="http://www.w3.org/1999/xlink">
    <!-- Generator: Sketch 43.2 (39069) - http://www.bohemiancoding.com/sketch -->
    <title>splash-char3</title>
    <desc>Created with Sketch.</desc>
    <defs>
        <linearGradient x1="50%" y1="0%" x2="50%" y2="97.4270568%" id="linearGradient-1">
            <stop stop-color="#8F6134" offset="0%"></stop>
            <stop stop-color="#6E4721" offset="100%"></stop>
        </linearGradient>
        <path d="M25.0568182,73.9292261 C44.9348766,73.9292261 50.1136364,62.6439266 50.1136364,48.7228041 C50.1136364,44.066767 50.1136364,28.4402147 50.1136364,23.5163821 C50.1136364,18.5925495 48.893995,13.8581584 43.0950706,7.48596975 C37.2961461,1.11378107 29.2316924,0 25.0568182,0 C20.4381587,0 11.7301535,2.08156011 5.98944647,8.85741292 C0.248739413,15.6332657 3.99523287e-13,20.001971 1.4248537e-13,23.5163821 C-1.14157866e-13,27.0307931 1.4248537e-13,42.5382191 1.4248537e-13,48.7228041 C1.4248537e-13,62.6439266 5.17875976,73.9292261 25.0568182,73.9292261 Z" id="path-2"></path>
        <path d="M25.0568182,87 C44.9348766,87 50.1136364,73.7194463 50.1136364,57.337053 C50.1136364,51.8578231 50.1136364,33.468478 50.1136364,27.674106 C50.1136364,21.879734 48.893995,16.3082971 43.0950706,8.80949799 C37.2961461,1.31069887 29.2316924,0 25.0568182,0 C20.4381587,0 11.7301535,2.44958238 5.98944647,10.4234139 C0.248739413,18.3972454 3.99523287e-13,23.538343 1.4248537e-13,27.674106 C-1.14157866e-13,31.809869 1.4248537e-13,50.0590262 1.4248537e-13,57.337053 C1.4248537e-13,73.7194463 5.17875976,87 25.0568182,87 Z" id="path-4"></path>
    </defs>
    <g id="Splash/Signup/Login" stroke="none" stroke-width="1" fill="none" fill-rule="evenodd">
        <g id="splash-char3">
            <g id="guy1" transform="translate(7.000000, 3.000000)">
                <ellipse id="Oval-8" fill="url(#linearGradient-1)" cx="32.2159091" cy="30.2477064" rx="30.0681818" ry="30.2477064"></ellipse>
                <ellipse id="Oval-8" stroke="#1164CE" stroke-width="2.16" stroke-linecap="round" stroke-linejoin="round" cx="32.2159091" cy="30.2477064" rx="30.0681818" ry="30.2477064"></ellipse>
                <g id="corps" transform="translate(6.443182, 82.821101)">
                    <mask id="mask-3" fill="white">
                        <use xlink:href="#path-2"></use>
                    </mask>
                    <use id="Oval" fill="#36093F" transform="translate(25.056818, 36.964613) scale(1, -1) translate(-25.056818, -36.964613) " xlink:href="#path-2"></use>
                    <ellipse id="Oval-5" fill="#0FD1E1" mask="url(#mask-3)" cx="32.9318182" cy="23.766055" rx="2.85225567" ry="2.86928531"></ellipse>
                    <mask id="mask-5" fill="white">
                        <use xlink:href="#path-4"></use>
                    </mask>
                    <use id="Oval" stroke="#1164CE" stroke-width="2.16" stroke-linecap="round" stroke-linejoin="round" transform="translate(25.056818, 43.500000) scale(1, -1) translate(-25.056818, -43.500000) " xlink:href="#path-4"></use>
                    <g id="Group-2" mask="url(#mask-5)">
                        <g transform="translate(15.750000, 0.000000)" id="Group-3">
                            <g>
                                <ellipse id="decolleté-fond" fill="#F1A566" cx="9.30681818" cy="6.18779285" rx="9.10068477" ry="6.15607296"></ellipse>
                                <ellipse id="decolleté" stroke="#1164CE" stroke-width="2.16" stroke-linecap="round" stroke-linejoin="round" cx="9.30681818" cy="6.18779285" rx="9.10068477" ry="6.15607296"></ellipse>
                            </g>
                        </g>
                    </g>
                    <g id="bras-droit" mask="url(#mask-5)">
                        <g transform="translate(0.715909, 18.724771)">
                            <rect id="Rectangle" stroke="none" fill="#F1A566" fill-rule="evenodd" x="0" y="26.646789" width="7.875" height="34.2073327"></rect>
                            <polygon id="Path-9" stroke="none" fill="#DA965C" fill-rule="evenodd" points="0 26.9489575 8.37612935 31.7563424 6.08789251 25.9266055 2.22253584 25.9266055"></polygon>
                            <path d="M0,26.646789 L6.97581977,26.646789" id="Path-4" stroke="#1164CE" stroke-width="2.16" fill="none" stroke-linecap="round" stroke-linejoin="round"></path>
                            <path d="M7.72,2.10304923 L7.72,50.859273" id="Path-6" stroke="#1164CE" stroke-width="2.16" fill="none" stroke-linecap="round" stroke-linejoin="round"></path>
                        </g>
                    </g>
                    <g id="bras-droit" mask="url(#mask-5)">
                        <g transform="translate(44.397727, 49.224771) scale(-1, 1) translate(-44.397727, -49.224771) translate(39.397727, 18.724771)">
                            <rect id="Rectangle" stroke="none" fill="#F1A566" fill-rule="evenodd" x="0" y="26.646789" width="7.875" height="34.2073327"></rect>
                            <polygon id="Path-8" stroke="none" fill="#DA965C" fill-rule="evenodd" points="0 26.6944088 0 28.5974489 8.12947901 31.4454517 6.44801659 25.9266055"></polygon>
                            <path d="M0,26.646789 L6.97581977,26.646789" id="Path-4" stroke="#1164CE" stroke-width="2.16" fill="none" stroke-linecap="round" stroke-linejoin="round"></path>
                            <path d="M7.72,2.10304923 L7.72,50.859273" id="Path-6" stroke="#1164CE" stroke-width="2.16" fill="none" stroke-linecap="round" stroke-linejoin="round"></path>
                        </g>
                    </g>
                </g>
                <g id="coups" transform="translate(24.340909, 77.059633)">
                    <polyline fill="#F1A566" points="14.3181818 10.0825688 14.3181818 0 0 0 0 10.0479892"></polyline>
                    <polyline stroke="#1164CE" stroke-width="2.16" stroke-linecap="round" stroke-linejoin="round" points="14.3181818 10.0825688 14.3181818 0 0 0 0 10.0479892"></polyline>
                </g>
                <g id="head" transform="translate(0.000000, 5.761468)">
                    <g id="oreilles" transform="translate(0.000000, 39.610092)">
                        <path d="M5.53987308,12.9633028 L10.7234043,12.9633028 L10.7234043,6.48165138 L10.7234043,0 L5.53987308,0 C2.48028566,0 0,2.90193417 0,6.48165138 C0,10.0613686 2.48028566,12.9633028 5.53987308,12.9633028 Z" id="Oval-4" fill="#DA965C"></path>
                        <path d="M57.8164688,12.9633028 L63,12.9633028 L63,6.48165138 L63,0 L57.8164688,0 C54.7568814,0 52.2765957,2.90193417 52.2765957,6.48165138 C52.2765957,10.0613686 54.7568814,12.9633028 57.8164688,12.9633028 Z" id="Oval-4-Copy-2" fill="#DA965C" transform="translate(57.638298, 6.481651) scale(-1, 1) translate(-57.638298, -6.481651) "></path>
                        <path d="M5.53987308,12.9633028 L10.7234043,12.9633028 L10.7234043,6.48165138 L10.7234043,0 L5.53987308,0 C2.48028566,0 0,2.90193417 0,6.48165138 C0,10.0613686 2.48028566,12.9633028 5.53987308,12.9633028 Z" id="Oval-4" stroke="#1164CE" stroke-width="2.16" stroke-linecap="round" stroke-linejoin="round"></path>
                        <path d="M57.8164688,12.9633028 L63,12.9633028 L63,6.48165138 L63,0 L57.8164688,0 C54.7568814,0 52.2765957,2.90193417 52.2765957,6.48165138 C52.2765957,10.0613686 54.7568814,12.9633028 57.8164688,12.9633028 Z" id="Oval-4-Copy-2" stroke="#1164CE" stroke-width="2.16" stroke-linecap="round" stroke-linejoin="round" transform="translate(57.638298, 6.481651) scale(-1, 1) translate(-57.638298, -6.481651) "></path>
                    </g>
                    <g id="forme" transform="translate(6.443182, 0.000000)">
                        <path d="M25.0568182,73.9292261 C38.8953167,73.9292261 50.1136364,62.6439266 50.1136364,48.7228041 C50.1136364,44.066767 50.1136364,28.4402147 50.1136364,23.5163821 C50.1136364,18.5925495 48.893995,13.8581584 43.0950706,7.48596975 C37.2961461,1.11378107 29.2316924,0 25.0568182,0 C20.4381587,0 11.7301535,2.08156011 5.98944647,8.85741292 C0.248739413,15.6332657 3.35575894e-13,20.001971 7.8536953e-14,23.5163821 C-1.78107249e-13,27.0307931 7.8536953e-14,42.5382191 7.8536953e-14,48.7228041 C7.8536953e-14,62.6439266 11.2183196,73.9292261 25.0568182,73.9292261 Z" id="Oval" fill="#F1A566"></path>
                        <path d="M24.4810929,0.446856095 C24.4810929,0.446856095 44.2190408,3.05522263 44.2190408,28.6417761 C44.2190408,54.2283296 48.3814006,68.3320403 27.3195971,73.0406309 C27.3195971,73.0406309 39.8074073,72.7626601 43.9376027,65.2140606 C48.0677981,57.6654611 50.8953372,55.6248022 50.3529292,36.8235314 C49.8105213,18.0222607 49.5343107,15.864616 43.9376027,7.99545562 C38.3408948,0.126295273 24.4810929,0.446856095 24.4810929,0.446856095 Z" id="Path-2" fill="#DA965C"></path>
                        <path d="M0.0874605758,25.2782241 C0.0874605758,25.2782241 2.987596,19.9078603 17.5904204,23.4304894 C32.1932448,26.9531184 29.5957854,28.7331375 48.4619642,25.2782241 C54.1182615,24.2424013 48.8475463,19.3220754 47.7177484,17.166091 C45.0791854,12.1309421 35.0584076,8.99697225 24.7341398,11.1796578 C9.98915651,14.2969407 -0.0179817769,14.9256769 0.0874605758,18.8077192 C0.192902929,22.6897616 0.0874605758,25.2782241 0.0874605758,25.2782241 Z" id="Path-18" fill="#DA965C"></path>
                        <path d="M25.0568182,73.9292261 C38.8953167,73.9292261 50.1136364,62.6439266 50.1136364,48.7228041 C50.1136364,44.066767 50.1136364,28.4402147 50.1136364,23.5163821 C50.1136364,18.5925495 48.893995,13.8581584 43.0950706,7.48596975 C37.2961461,1.11378107 29.2316924,0 25.0568182,0 C20.4381587,0 11.7301535,2.08156011 5.98944647,8.85741292 C0.248739413,15.6332657 3.35575894e-13,20.001971 7.8536953e-14,23.5163821 C-1.78107249e-13,27.0307931 7.8536953e-14,42.5382191 7.8536953e-14,48.7228041 C7.8536953e-14,62.6439266 11.2183196,73.9292261 25.0568182,73.9292261 Z" id="Oval" stroke="#1164CE" stroke-width="2.16" stroke-linecap="round" stroke-linejoin="round"></path>
                    </g>
                    <g id="nez" transform="translate(29.352273, 48.972477)"></g>
                    <g id="yeux" transform="translate(16.465909, 36.009174)">
                        <g id="Group">
                            <ellipse id="Oval-2" fill="#1164CE" cx="5.01136364" cy="7.20183486" rx="2.86363636" ry="2.88073394"></ellipse>
                            <path d="M0,2.40003503 C0,2.40003503 1.42646694,-0.494862549 6.39597661,0.0740814487" id="Path-2" stroke="#1164CE" stroke-width="2.16" stroke-linecap="round" stroke-linejoin="round"></path>
                        </g>
                        <g id="Group-Copy" transform="translate(26.130682, 5.041284) scale(-1, 1) translate(-26.130682, -5.041284) translate(22.193182, 0.000000)">
                            <ellipse id="Oval-2" fill="#1164CE" cx="5.01136364" cy="7.20183486" rx="2.86363636" ry="2.88073394"></ellipse>
                            <path d="M0,2.40003503 C0,2.40003503 1.42646694,-0.494862549 6.39597661,0.0740814487" id="Path-2" stroke="#1164CE" stroke-width="2.16" stroke-linecap="round" stroke-linejoin="round"></path>
                        </g>
                    </g>
                    <g id="paumettes" opacity="0.463711504" transform="translate(14.318182, 46.811927)" fill="#DA965C">
                        <ellipse id="Oval-3" cx="3.57954545" cy="3.60091743" rx="3.57954545" ry="3.60091743"></ellipse>
                        <ellipse id="Oval-3-Copy" cx="30.7840909" cy="3.60091743" rx="3.57954545" ry="3.60091743"></ellipse>
                    </g>
                    <g id="bouche" transform="translate(24.340909, 55.454128)" stroke="#1164CE" stroke-width="2.16" stroke-linecap="round" stroke-linejoin="round">
                        <path d="M6.44318182,5.82042802 C6.44318182,5.82042802 8.00625667,6.2879074 9.30681818,5.76146789" id="Path-3-Copy-2"></path>
                        <path d="M0.627380622,0.232982211 C0.627380622,0.232982211 7.42851699,3.68073709 14.2296533,0.067086286" id="Path-3-Copy"></path>
                    </g>
                </g>
                <path d="M5.01136364,29.280637 C5.01136364,29.280637 6.77988902,24.0722838 12.4507521,25.433228 C18.1216151,26.7941722 19.0849283,29.5902199 31.5596504,29.7531485 C44.0343726,29.9160771 49.2756053,25.433228 53.5880864,27.0863711 C57.5186579,28.5931132 58.0812807,30.9463557 58.0812807,35.1503213 C58.0812807,39.3542869 64.117803,2.35133576 32.166287,3.48875726 C0.214770958,4.62617875 5.01136364,29.280637 5.01136364,29.280637 Z" id="Path-19" fill="#8F6134"></path>
                <path d="M5.01136364,29.280637 C5.01136364,29.280637 6.79501743,24.0722838 12.5143905,25.433228 C18.2337635,26.7941722 19.2053171,29.5902199 31.7867511,29.7531485 C44.3681852,29.9160771 49.6542527,25.433228 54.0036239,27.0863711 C57.9678185,28.5931132 58.535254,30.9463557 58.535254,35.1503213" id="Path-19" stroke="#1164CE" stroke-width="2.16" stroke-linecap="round" stroke-linejoin="round"></path>
                <path d="M29.3522727,54.7929051 C29.3522727,54.7929051 31.7694261,56.0182521 34.1865794,54.733945" id="Path-3" stroke="#1164CE" stroke-width="2.16" stroke-linecap="round" stroke-linejoin="round"></path>
            </g>
        </g>
    </g>
</svg>