<?xml version="1.0" encoding="UTF-8"?>
<svg width="300px" height="166px" viewBox="0 0 300 166" version="1.1" xmlns="http://www.w3.org/2000/svg" xmlns:xlink="http://www.w3.org/1999/xlink">
    <!-- Generator: Sketch 43.2 (39069) - http://www.bohemiancoding.com/sketch -->
    <title>splash-bg2</title>
    <desc>Created with Sketch.</desc>
    <defs></defs>
    <g id="Splash/Signup/Login" stroke="none" stroke-width="1" fill="none" fill-rule="evenodd">
        <g id="splash-bg2">
            <g id="Group-8" transform="translate(3.000000, 0.000000)">
                <g id="Group-6" transform="translate(125.500000, 20.000000) rotate(-5.000000) translate(-125.500000, -20.000000) translate(107.000000, 2.000000)">
                    <polyline id="Path-34-Copy" fill="#00D392" points="26.903792 35.328647 26.903792 29.6374001 36 29.6374001 30.7359047 22.144945 32.8485705 22.144945 29.4067246 14.3584222 31.0843314 14.3584222 26.958504 7.75686008 22.5629095 14.3584222 24.2334736 14.3584222 20.7271314 22.2200778 23.3396667 22.2200778 18 29.6374001 25.0295754 29.6374001"></polyline>
                    <path d="M25.409168,9.79096949 C25.6949923,10.0459429 26.4413828,10.9835774 27.0784425,11.888309 L29.0435472,14.6790871 L28.6492112,14.6790871 C27.5481199,14.6790871 27.0830985,15.4600178 27.6158381,16.4329901 L30.5811881,21.8487753 L29.3887806,21.8487753 C28.2787637,21.8487753 27.9411624,22.5445194 28.6317664,23.3990997 L33.3553164,29.2442054 L36.107922,29.1270627 L31.4761053,22.8815363 L32.8298996,20.8914258 L30.0140403,14.3639684 L30.8115303,12.4088528 L26.6231469,8.29998848 L25.409168,9.79096949 L25.409168,9.79096949 Z" id="Path-36" fill="#2AB78C"></path>
                    <polyline id="Path-34-Copy" stroke="#1164CE" stroke-width="2" stroke-linecap="round" stroke-linejoin="round" points="26.903792 35.328647 26.903792 29.6374001 37 29.6374001 30.7359047 22.144945 33.8485705 22.144945 29.4067246 14.3584222 32.0843314 14.3584222 26.958504 7.75686008 21.5629095 14.3584222 24.2334736 14.3584222 19.7271314 22.2200778 23.3396667 22.2200778 17 29.6374001 25.0295754 29.6374001"></polyline>
                    <polyline id="Path-34" fill="#00D392" points="11.0094243 35.328647 11.0094243 29.5279805 22.2567685 29.5279805 15.7477824 19.0271691 19.5965536 19.0271691 14.1042683 9.39923379 17.4150947 9.39923379 11.077075 0 4.40549179 9.39923379 7.70760994 9.39923379 2.13557581 19.1200697 6.60242922 19.1200697 0 29.5279805 10.3633342 29.5279805"></polyline>
                    <path d="M9.26747322,1.86387283 C9.22325534,2.35422931 9.70814092,3.47578911 10.3600866,4.38228269 L13.6506998,8.95769408 L12.6759965,8.95769408 C11.5702898,8.95769408 11.1398907,9.7147458 11.7218827,10.66033 L16.6120445,18.6055582 L13.8856357,18.6055582 C12.7768248,18.6055582 12.350841,19.3580296 12.9435436,20.3011587 L18.6029019,29.306528 L22.1717476,29.4082978 L16.3432565,19.632609 L19.1945918,17.9054178 L14.9910769,9.45162268 L16.136822,8.2682428 L11.0162655,0.510802423 L9.26747322,1.86387283 L9.26747322,1.86387283 Z" id="Path-35" fill="#2AB78C"></path>
                    <polyline id="Path-34" stroke="#1164CE" stroke-width="2" stroke-linecap="round" stroke-linejoin="round" points="11.0094243 35.328647 11.0094243 29.5279805 22.2567685 29.5279805 15.7477824 19.0271691 19.5965536 19.0271691 14.1042683 9.39923379 17.4150947 9.39923379 11.077075 0 4.40549179 9.39923379 7.70760994 9.39923379 2.13557581 19.1200697 6.60242922 19.1200697 0 29.5279805 8.69197952 29.5279805"></polyline>
                </g>
                <g id="Group-3" transform="translate(280.000000, 72.000000) rotate(-6.000000) translate(-280.000000, -72.000000) translate(264.000000, 56.000000)">
                    <path d="M26.6666667,29.3333333 L26.6666667,16 L26.6666667,2.66666667 L27.5555556,2.66666667 L27.5555556,0 L3.55555556,0 L3.55555556,2.66666667 L4.44444444,2.66666667 L4.44444444,16 L4.44444444,29.3333333 L3.55555556,29.3333333 L3.55555556,32 L27.5555556,32 L27.5555556,29.3333333 L26.6666667,29.3333333 Z" id="Combined-Shape" fill="#F2F2F2"></path>
                    <path d="M21.0325289,13.7724569 C21.4743341,14.9389957 22.3525447,16.0847684 24.0938412,16.2528504 C24.0938412,16.5257167 24.0938412,31.650202 24.0938412,31.650202 L27.7113927,31.3975816 L27.6079218,29.9358917 L26.7288559,29.1471992 L26.243154,14.4567357 L22.1883617,10.5885839 L20.5908936,11.1190359 C20.5908936,11.1190359 20.5847577,11.2662484 20.5946712,11.5109186 L9.65095088,11.7360072 L8.45487945,13.7724569 L21.0325289,13.7724569 Z M24.332467,0.41742904 L26.9609663,0.159831479 L27.3927415,1.26746237 L26.8705947,3.8098383 L24.332467,3.7590323 L24.332467,0.41742904 Z" id="Combined-Shape" fill="#D8D8D8"></path>
                    <path d="M26.6666667,29.3333333 L26.6666667,16 L26.6666667,2.66666667 L27.5555556,2.66666667 L27.5555556,0 L3.55555556,0 L3.55555556,2.66666667 L4.44444444,2.66666667 L4.44444444,16 L4.44444444,29.3333333 L3.55555556,29.3333333 L3.55555556,32 L27.5555556,32 L27.5555556,29.3333333 L26.6666667,29.3333333 Z" id="Combined-Shape" stroke="#1164CE" stroke-width="2" stroke-linecap="round" stroke-linejoin="round"></path>
                    <path d="M20.8888889,16.4444444 L20.8888889,27.1111111" id="Line-Copy-3" stroke="#D3D2D3" stroke-width="3" stroke-linecap="round" stroke-linejoin="round"></path>
                    <path d="M15.5555556,16.4444444 L15.5555556,27.1111111" id="Line-Copy-4" stroke="#D3D2D3" stroke-width="3" stroke-linecap="round" stroke-linejoin="round"></path>
                    <path d="M10.2222222,16.4444444 L10.2222222,27.1111111" id="Line-Copy-5" stroke="#D3D2D3" stroke-width="3" stroke-linecap="round" stroke-linejoin="round"></path>
                    <path d="M10.6666667,16.4444444 L10.6666667,27.1111111" id="Line" stroke="#1164CE" stroke-width="2" stroke-linecap="round" stroke-linejoin="round"></path>
                    <path d="M16,16.4444444 L16,27.1111111" id="Line-Copy" stroke="#1164CE" stroke-width="2" stroke-linecap="round" stroke-linejoin="round"></path>
                    <path d="M21.3333333,16.4444444 L21.3333333,27.1111111" id="Line-Copy-2" stroke="#1164CE" stroke-width="2" stroke-linecap="round" stroke-linejoin="round"></path>
                    <path d="M8.43523218,10.0907838 C8.43523218,10.0907838 9.60912587,15.0321343 4.08518032,14.3765941 C-1.43876522,13.7210538 -0.128924539,5.73506764 2.34015841,4.76619433 C4.80924136,3.79732103 27.3820725,4.58659426 27.3820725,4.58659426 C27.3820725,4.58659426 30.2059382,4.81910728 30.6419519,6.86848223 C31.0779656,8.91785719 32.0164451,9.11693696 30.9073456,11.1321879 C29.7982461,13.1474388 28.915719,15.7353377 24.7865752,13.9307715 C20.6574314,12.1262052 23.0756773,10.1754721 23.0756773,10.1754721 L8.43523218,10.0907838 Z" id="Path-24" fill="#D8D8D8"></path>
                    <path d="M8.93028048,10.5772442 L22.5361637,10.5772442" id="Path-23" stroke="#1164CE" stroke-width="2" stroke-linecap="round" stroke-linejoin="round"></path>
                    <path d="M5.71133641,10.5142869 C5.71133641,10.5142869 5.24098216,11.9509234 3.86233155,11.1040252 C2.48368095,10.257127 2.6408512,7.13228543 5.71133641,7.48461743 C8.78182162,7.83694942 9.5235732,11.0489169 8.34157833,12.8499538 C7.15958346,14.6509907 2.13398763,15.3513049 0.539908559,11.9509234 C-1.05417051,8.55054191 1.04494065,4.41710838 4.69325949,4.44458066 C8.34157833,4.47205294 17.3097362,4.44458066 17.3097362,4.44458066" id="Path-22" stroke="#1164CE" stroke-width="2" stroke-linecap="round" stroke-linejoin="round"></path>
                    <path d="M19.9335586,10.5142869 C19.9335586,10.5142869 19.4632044,11.9509234 18.0845538,11.1040252 C16.7059032,10.257127 16.8630734,7.13228543 19.9335586,7.48461743 C23.0040438,7.83694942 23.7457954,11.0489169 22.5638006,12.8499538 C21.3818057,14.6509907 16.3562099,15.3513049 14.7621308,11.9509234 C13.1680517,8.55054191 15.2671629,4.41710838 18.9154817,4.44458066 C22.5638006,4.47205294 31.5319584,4.44458066 31.5319584,4.44458066" id="Path-22-Copy" stroke="#1164CE" stroke-width="2" stroke-linecap="round" stroke-linejoin="round" transform="translate(22.877090, 9.398065) scale(-1, 1) translate(-22.877090, -9.398065) "></path>
                </g>
                <g id="Group-4-Copy" transform="translate(19.000000, 23.000000)">
                    <circle id="Oval-9" fill="#FFFFFF" cx="30" cy="18" r="7"></circle>
                    <circle id="Oval-9-Copy" fill="#FFFFFF" cx="7" cy="23" r="7"></circle>
                    <path d="M28,12 C28,12 37.8885165,15.384954 31.8931596,24.1174932 C31.8931596,24.1174932 39.2564275,20.7134951 36.1233999,15.8099096 C32.9903722,10.9063241 28,12 28,12 Z" id="Path-31" fill="#FFEBC9"></path>
                    <path d="M5,17 C5,17 14.8885165,20.384954 8.89315958,29.1174932 C8.89315958,29.1174932 16.2564275,25.7134951 13.1233999,20.8099096 C9.9903722,15.9063241 5,17 5,17 Z" id="Path-31-Copy" fill="#FFEBC9"></path>
                    <circle id="Oval-9" stroke="#1164CE" stroke-width="2" stroke-linecap="round" stroke-linejoin="round" cx="30" cy="18" r="7"></circle>
                    <circle id="Oval-9-Copy" stroke="#1164CE" stroke-width="2" stroke-linecap="round" stroke-linejoin="round" cx="7" cy="23" r="7"></circle>
                    <path d="M5.84463767,10.0309755 L17.6545699,20.162527 L21.1651853,7.84954759 C21.1651853,7.84954759 19.9697957,4.63565035 22.2240295,3.63862239 C24.4782633,2.64159443 25.2362683,-0.438230156 21.4454191,0.470331835 C17.6545699,1.37889383 18.2298734,1.50527378 18.2298734,1.50527378" id="Path-28" stroke="#1164CE" stroke-width="2" stroke-linecap="round" stroke-linejoin="round"></path>
                    <polyline id="Path-29" stroke="#1164CE" stroke-width="2" stroke-linecap="round" stroke-linejoin="round" points="29.2128411 18.2668276 21.0621581 8.01109415 8.02771405 11.4813229 6.53066105 23.8671081 18.3169657 21.0919691"></polyline>
                    <path d="M2.00296174,8.24352337 C2.00296174,8.24352337 2.5439229,10.3112094 6.01470114,9.27736636 C9.48547937,8.24352337 9.7066443,8.24352337 9.7066443,8.24352337" id="Path-30" stroke="#1164CE" stroke-width="2" stroke-linecap="round" stroke-linejoin="round"></path>
                    <circle id="Oval-9-Copy" fill="#FFFFFF" cx="18" cy="21" r="2"></circle>
                    <circle id="Oval-9-Copy" stroke="#1164CE" stroke-width="2" stroke-linecap="round" stroke-linejoin="round" cx="18" cy="21" r="2"></circle>
                </g>
                <g id="Group-5" transform="translate(14.000000, 101.500000) rotate(-9.000000) translate(-14.000000, -101.500000) translate(3.000000, 84.000000)">
                    <circle id="Oval-10-Copy-2" fill="#FFD4F5" cx="12" cy="6" r="6"></circle>
                    <path d="M8.06997169,6.30294139 C8.06997169,6.30294139 17.1229716,3.76919973 16.4541789,2.4368443 C15.7853861,1.10448888 17.8715226,7.11207383 17.8715226,7.11207383 L10.8994291,8.4391992 L8.06997169,6.30294139 Z" id="Path-7" fill="#F9B4EA"></path>
                    <circle id="Oval-10-Copy-2" stroke="#1164CE" stroke-width="2" stroke-linecap="round" stroke-linejoin="round" cx="12" cy="6" r="6"></circle>
                    <circle id="Oval-10" fill="#FFFFFF" cx="15.5" cy="12.5" r="5.5"></circle>
                    <path d="M18.4917195,8.71726357 C18.4917195,8.71726357 18.5069738,15.445288 14.3752337,15.4707845 C10.2434936,15.496281 21.3340341,17.1988804 21.1376893,14.3116745 C20.9413445,11.4244686 18.4917195,8.71726357 18.4917195,8.71726357 Z" id="Path-6" fill="#F1F1F1"></path>
                    <circle id="Oval-10" stroke="#1164CE" stroke-width="2" stroke-linecap="round" stroke-linejoin="round" cx="15.5" cy="12.5" r="5.5"></circle>
                    <circle id="Oval-10-Copy" fill="#F7FAA8" cx="5.5" cy="11.5" r="5.5"></circle>
                    <path d="M1.52390943,14.8734691 C1.52390943,14.8734691 10.2855519,14.4223772 10.2153821,10.3915336 C10.1452122,6.36068987 12.434449,16.8944479 6.63061814,16.2104008 C0.826787249,15.5263538 1.52390943,14.8734691 1.52390943,14.8734691 Z" id="Path-5" fill="#E8EC76"></path>
                    <circle id="Oval-10-Copy" stroke="#1164CE" stroke-width="2" stroke-linecap="round" stroke-linejoin="round" cx="5.5" cy="11.5" r="5.5"></circle>
                    <path d="M10.5514699,33.9823759 C10.7991863,34.47325 11.2019472,34.4710039 11.4485301,33.9823759 L18,21 L4,21 L10.5514699,33.9823759 Z" id="Path-32" fill="#FFEFD3"></path>
                    <path d="M18.6901723,20.6165222 C19.2419984,20.61917 19.8863472,20.2273056 20.1348599,19.7302802 L21.5544819,16.8910363 C21.8005347,16.3989305 21.5605417,16 20.9975383,16 L1.00246167,16 C0.448817378,16 0.201346609,16.4026932 0.448254659,16.8965093 L1.82061007,19.6412201 C2.06817428,20.1363486 2.71699182,20.5398797 3.26803422,20.5425237 L18.6901723,20.6165222 Z" id="Path-32-Copy" fill="#FFEFD3"></path>
                    <polygon id="Path-4" fill="#EBCE9A" points="10.1796299 31.7566673 14.5572354 21.5392389 16.1208613 20.4115432 17.796836 16.1833153 21.4959305 16.3791893 18.9798645 20.9139569 17.7991503 21.4767528 11.3104815 33.6249394"></polygon>
                    <path d="M10.5514699,33.9823759 C10.7991863,34.47325 11.2019472,34.4710039 11.4485301,33.9823759 L18,21 L4,21 L10.5514699,33.9823759 Z" id="Path-32" stroke="#1164CE" stroke-width="2" stroke-linecap="round" stroke-linejoin="round"></path>
                    <path d="M18.6901723,20.6165222 C19.2419984,20.61917 19.8863472,20.2273056 20.1348599,19.7302802 L21.5544819,16.8910363 C21.8005347,16.3989305 21.5605417,16 20.9975383,16 L1.00246167,16 C0.448817378,16 0.201346609,16.4026932 0.448254659,16.8965093 L1.82061007,19.6412201 C2.06817428,20.1363486 2.71699182,20.5398797 3.26803422,20.5425237 L18.6901723,20.6165222 Z" id="Path-32-Copy" stroke="#1164CE" stroke-width="2" stroke-linecap="round" stroke-linejoin="round"></path>
                </g>
                <path d="M45,85 C41.6862915,85 39,82.3137085 39,79 C39,75.6862915 41.6862915,73 45,73 C48.3137085,73 51,75.6862915 51,79 C51,82.3137085 48.3137085,85 45,85 Z M45,83 C47.209139,83 49,81.209139 49,79 C49,76.790861 47.209139,75 45,75 C42.790861,75 41,76.790861 41,79 C41,81.209139 42.790861,83 45,83 Z" id="Combined-Shape-Copy-5" fill="#FCC0CC"></path>
                <circle id="Oval-7-Copy-3" fill="#D7C5F1" cx="193" cy="76" r="5"></circle>
                <circle id="Oval-7-Copy-4" fill="#ABE9A0" cx="191" cy="37" r="2"></circle>
                <circle id="Oval-7-Copy-2" fill="#FCC0CC" cx="260.5" cy="100.5" r="2.5"></circle>
                <circle id="Oval-7-Copy-7" fill="#FCC0CC" cx="45.5" cy="119.5" r="2.5"></circle>
                <circle id="Oval-7-Copy-6" fill="#E7EEF8" cx="53.5" cy="95.5" r="3.5"></circle>
                <path d="M271,18 L271,14.0024733 C271,13.455761 270.552285,13 270,13 C269.443865,13 269,13.4488226 269,14.0024733 L269,18 L265.002473,18 C264.455761,18 264,18.4477153 264,19 C264,19.5561352 264.448823,20 265.002473,20 L269,20 L269,23.9975267 C269,24.544239 269.447715,25 270,25 C270.556135,25 271,24.5511774 271,23.9975267 L271,20 L274.997527,20 C275.544239,20 276,19.5522847 276,19 C276,18.4438648 275.551177,18 274.997527,18 L271,18 Z" id="Combined-Shape-Copy-7" fill="#D7C5F1"></path>
                <path d="M150.833333,60.1666667 L150.833333,56.8014379 C150.833333,56.3559053 150.47772,56 150.03905,56 L149.96095,56 C149.520124,56 149.166667,56.358816 149.166667,56.8014379 L149.166667,60.1666667 L145.801438,60.1666667 C145.355905,60.1666667 145,60.5222795 145,60.9609502 L145,61.0390498 C145,61.4798762 145.358816,61.8333333 145.801438,61.8333333 L149.166667,61.8333333 L149.166667,65.1985621 C149.166667,65.6440947 149.52228,66 149.96095,66 L150.03905,66 C150.479876,66 150.833333,65.641184 150.833333,65.1985621 L150.833333,61.8333333 L154.198562,61.8333333 C154.644095,61.8333333 155,61.4777205 155,61.0390498 L155,60.9609502 C155,60.5201238 154.641184,60.1666667 154.198562,60.1666667 L150.833333,60.1666667 Z" id="Combined-Shape-Copy-9" fill="#FBC8D2"></path>
                <path d="M248.083333,74.9166667 L248.083333,72.5847761 C248.083333,72.2658606 247.822166,72 247.5,72 C247.187256,72 246.916667,72.2618132 246.916667,72.5847761 L246.916667,74.9166667 L244.584776,74.9166667 C244.265861,74.9166667 244,75.1778339 244,75.5 C244,75.8127441 244.261813,76.0833333 244.584776,76.0833333 L246.916667,76.0833333 L246.916667,78.4152239 C246.916667,78.7341394 247.177834,79 247.5,79 C247.812744,79 248.083333,78.7381868 248.083333,78.4152239 L248.083333,76.0833333 L250.415224,76.0833333 C250.734139,76.0833333 251,75.8221661 251,75.5 C251,75.1872559 250.738187,74.9166667 250.415224,74.9166667 L248.083333,74.9166667 Z" id="Combined-Shape-Copy-8" fill="#E3EBF7"></path>
                <path d="M282.083333,141.916667 L282.083333,139.584776 C282.083333,139.265861 281.822166,139 281.5,139 C281.187256,139 280.916667,139.261813 280.916667,139.584776 L280.916667,141.916667 L278.584776,141.916667 C278.265861,141.916667 278,142.177834 278,142.5 C278,142.812744 278.261813,143.083333 278.584776,143.083333 L280.916667,143.083333 L280.916667,145.415224 C280.916667,145.734139 281.177834,146 281.5,146 C281.812744,146 282.083333,145.738187 282.083333,145.415224 L282.083333,143.083333 L284.415224,143.083333 C284.734139,143.083333 285,142.822166 285,142.5 C285,142.187256 284.738187,141.916667 284.415224,141.916667 L282.083333,141.916667 Z" id="Combined-Shape-Copy-12" fill="#DDCEF3"></path>
            </g>
        </g>
    </g>
</svg>