<?xml version="1.0" encoding="UTF-8"?>
<svg width="300px" height="166px" viewBox="0 0 300 166" version="1.1" xmlns="http://www.w3.org/2000/svg" xmlns:xlink="http://www.w3.org/1999/xlink">
    <!-- Generator: Sketch 43.2 (39069) - http://www.bohemiancoding.com/sketch -->
    <title>splash-bg2</title>
    <desc>Created with Sketch.</desc>
    <defs></defs>
    <g id="Splash/Signup/Login" stroke="none" stroke-width="1" fill="none" fill-rule="evenodd">
        <g id="splash-bg2">
            <g id="Group-8" transform="translate(42.000000, 13.000000)">
                <path d="M6,72 C2.6862915,72 0,69.3137085 0,66 C0,62.6862915 2.6862915,60 6,60 C9.3137085,60 12,62.6862915 12,66 C12,69.3137085 9.3137085,72 6,72 Z M6,70 C8.209139,70 10,68.209139 10,66 C10,63.790861 8.209139,62 6,62 C3.790861,62 2,63.790861 2,66 C2,68.209139 3.790861,70 6,70 Z" id="Combined-Shape-Copy-5" fill="#FCC0CC"></path>
                <circle id="Oval-7-Copy-3" fill="#D7C5F1" cx="154" cy="63" r="5"></circle>
                <circle id="Oval-7-Copy-4" fill="#ABE9A0" cx="152" cy="24" r="2"></circle>
                <circle id="Oval-7-Copy-2" fill="#FCC0CC" cx="221.5" cy="87.5" r="2.5"></circle>
                <circle id="Oval-7-Copy-7" fill="#FCC0CC" cx="6.5" cy="106.5" r="2.5"></circle>
                <circle id="Oval-7-Copy-6" fill="#E7EEF8" cx="14.5" cy="82.5" r="3.5"></circle>
                <path d="M232,5 L232,1.00247329 C232,0.455760956 231.552285,0 231,0 C230.443865,0 230,0.448822582 230,1.00247329 L230,5 L226.002473,5 C225.455761,5 225,5.44771525 225,6 C225,6.55613518 225.448823,7 226.002473,7 L230,7 L230,10.9975267 C230,11.544239 230.447715,12 231,12 C231.556135,12 232,11.5511774 232,10.9975267 L232,7 L235.997527,7 C236.544239,7 237,6.55228475 237,6 C237,5.44386482 236.551177,5 235.997527,5 L232,5 Z" id="Combined-Shape-Copy-7" fill="#D7C5F1"></path>
                <path d="M111.833333,47.1666667 L111.833333,43.8014379 C111.833333,43.3559053 111.47772,43 111.03905,43 L110.96095,43 C110.520124,43 110.166667,43.358816 110.166667,43.8014379 L110.166667,47.1666667 L106.801438,47.1666667 C106.355905,47.1666667 106,47.5222795 106,47.9609502 L106,48.0390498 C106,48.4798762 106.358816,48.8333333 106.801438,48.8333333 L110.166667,48.8333333 L110.166667,52.1985621 C110.166667,52.6440947 110.52228,53 110.96095,53 L111.03905,53 C111.479876,53 111.833333,52.641184 111.833333,52.1985621 L111.833333,48.8333333 L115.198562,48.8333333 C115.644095,48.8333333 116,48.4777205 116,48.0390498 L116,47.9609502 C116,47.5201238 115.641184,47.1666667 115.198562,47.1666667 L111.833333,47.1666667 Z" id="Combined-Shape-Copy-9" fill="#FBC8D2"></path>
                <path d="M209.083333,61.9166667 L209.083333,59.5847761 C209.083333,59.2658606 208.822166,59 208.5,59 C208.187256,59 207.916667,59.2618132 207.916667,59.5847761 L207.916667,61.9166667 L205.584776,61.9166667 C205.265861,61.9166667 205,62.1778339 205,62.5 C205,62.8127441 205.261813,63.0833333 205.584776,63.0833333 L207.916667,63.0833333 L207.916667,65.4152239 C207.916667,65.7341394 208.177834,66 208.5,66 C208.812744,66 209.083333,65.7381868 209.083333,65.4152239 L209.083333,63.0833333 L211.415224,63.0833333 C211.734139,63.0833333 212,62.8221661 212,62.5 C212,62.1872559 211.738187,61.9166667 211.415224,61.9166667 L209.083333,61.9166667 Z" id="Combined-Shape-Copy-8" fill="#E3EBF7"></path>
                <path d="M243.083333,128.916667 L243.083333,126.584776 C243.083333,126.265861 242.822166,126 242.5,126 C242.187256,126 241.916667,126.261813 241.916667,126.584776 L241.916667,128.916667 L239.584776,128.916667 C239.265861,128.916667 239,129.177834 239,129.5 C239,129.812744 239.261813,130.083333 239.584776,130.083333 L241.916667,130.083333 L241.916667,132.415224 C241.916667,132.734139 242.177834,133 242.5,133 C242.812744,133 243.083333,132.738187 243.083333,132.415224 L243.083333,130.083333 L245.415224,130.083333 C245.734139,130.083333 246,129.822166 246,129.5 C246,129.187256 245.738187,128.916667 245.415224,128.916667 L243.083333,128.916667 Z" id="Combined-Shape-Copy-12" fill="#DDCEF3"></path>
            </g>
            <g id="Group-6" transform="translate(128.998405, 19.543886) rotate(-5.000000) translate(-128.998405, -19.543886) translate(110.498405, 1.543886)">
                <polyline id="Path-34-Copy" fill="#00D392" points="26.903792 35.328647 26.903792 29.6374001 36 29.6374001 30.7359047 22.144945 32.8485705 22.144945 29.4067246 14.3584222 31.0843314 14.3584222 26.958504 7.75686008 22.5629095 14.3584222 24.2334736 14.3584222 20.7271314 22.2200778 23.3396667 22.2200778 18 29.6374001 25.0295754 29.6374001"></polyline>
                <path d="M25.409168,9.79096949 C25.6949923,10.0459429 26.4413828,10.9835774 27.0784425,11.888309 L29.0435472,14.6790871 L28.6492112,14.6790871 C27.5481199,14.6790871 27.0830985,15.4600178 27.6158381,16.4329901 L30.5811881,21.8487753 L29.3887806,21.8487753 C28.2787637,21.8487753 27.9411624,22.5445194 28.6317664,23.3990997 L33.3553164,29.2442054 L36.107922,29.1270627 L31.4761053,22.8815363 L32.8298996,20.8914258 L30.0140403,14.3639684 L30.8115303,12.4088528 L26.6231469,8.29998848 L25.409168,9.79096949 L25.409168,9.79096949 Z" id="Path-36" fill="#2AB78C"></path>
                <polyline id="Path-34-Copy" stroke="#413A34" stroke-width="2" stroke-linecap="round" stroke-linejoin="round" points="26.903792 35.328647 26.903792 29.6374001 37 29.6374001 30.7359047 22.144945 33.8485705 22.144945 29.4067246 14.3584222 32.0843314 14.3584222 26.958504 7.75686008 21.5629095 14.3584222 24.2334736 14.3584222 19.7271314 22.2200778 23.3396667 22.2200778 17 29.6374001 25.0295754 29.6374001"></polyline>
                <polyline id="Path-34" fill="#00D392" points="11.0094243 35.328647 11.0094243 29.5279805 22.2567685 29.5279805 15.7477824 19.0271691 19.5965536 19.0271691 14.1042683 9.39923379 17.4150947 9.39923379 11.077075 0 4.40549179 9.39923379 7.70760994 9.39923379 2.13557581 19.1200697 6.60242922 19.1200697 0 29.5279805 10.3633342 29.5279805"></polyline>
                <path d="M9.26747322,1.86387283 C9.22325534,2.35422931 9.70814092,3.47578911 10.3600866,4.38228269 L13.6506998,8.95769408 L12.6759965,8.95769408 C11.5702898,8.95769408 11.1398907,9.7147458 11.7218827,10.66033 L16.6120445,18.6055582 L13.8856357,18.6055582 C12.7768248,18.6055582 12.350841,19.3580296 12.9435436,20.3011587 L18.6029019,29.306528 L22.1717476,29.4082978 L16.3432565,19.632609 L19.1945918,17.9054178 L14.9910769,9.45162268 L16.136822,8.2682428 L11.0162655,0.510802423 L9.26747322,1.86387283 L9.26747322,1.86387283 Z" id="Path-35" fill="#2AB78C"></path>
                <polyline id="Path-34" stroke="#413A34" stroke-width="2" stroke-linecap="round" stroke-linejoin="round" points="11.0094243 35.328647 11.0094243 29.5279805 22.2567685 29.5279805 15.7477824 19.0271691 19.5965536 19.0271691 14.1042683 9.39923379 17.4150947 9.39923379 11.077075 0 4.40549179 9.39923379 7.70760994 9.39923379 2.13557581 19.1200697 6.60242922 19.1200697 0 29.5279805 8.69197952 29.5279805"></polyline>
            </g>
            <g id="Group-4-Copy" transform="translate(34.500000, 28.000000) rotate(-5.000000) translate(-34.500000, -28.000000) translate(16.000000, 13.000000)">
                <circle id="Oval-9" fill="#FFFFFF" cx="30" cy="18" r="7"></circle>
                <circle id="Oval-9-Copy" fill="#FFFFFF" cx="7" cy="23" r="7"></circle>
                <path d="M28,12 C28,12 37.8885165,15.384954 31.8931596,24.1174932 C31.8931596,24.1174932 39.2564275,20.7134951 36.1233999,15.8099096 C32.9903722,10.9063241 28,12 28,12 Z" id="Path-31" fill="#FFEBC9"></path>
                <path d="M5,17 C5,17 14.8885165,20.384954 8.89315958,29.1174932 C8.89315958,29.1174932 16.2564275,25.7134951 13.1233999,20.8099096 C9.9903722,15.9063241 5,17 5,17 Z" id="Path-31-Copy" fill="#FFEBC9"></path>
                <circle id="Oval-9" stroke="#413A34" stroke-width="2" stroke-linecap="round" stroke-linejoin="round" cx="30" cy="18" r="7"></circle>
                <circle id="Oval-9-Copy" stroke="#413A34" stroke-width="2" stroke-linecap="round" stroke-linejoin="round" cx="7" cy="23" r="7"></circle>
                <path d="M5.84463767,10.0309755 L17.6545699,20.162527 L21.1651853,7.84954759 C21.1651853,7.84954759 19.9697957,4.63565035 22.2240295,3.63862239 C24.4782633,2.64159443 25.2362683,-0.438230156 21.4454191,0.470331835 C17.6545699,1.37889383 18.2298734,1.50527378 18.2298734,1.50527378" id="Path-28" stroke="#413A34" stroke-width="2" stroke-linecap="round" stroke-linejoin="round"></path>
                <polyline id="Path-29" stroke="#413A34" stroke-width="2" stroke-linecap="round" stroke-linejoin="round" points="29.2128411 18.2668276 21.0621581 8.01109415 8.02771405 11.4813229 6.53066105 23.8671081 18.3169657 21.0919691"></polyline>
                <path d="M2.00296174,8.24352337 C2.00296174,8.24352337 2.5439229,10.3112094 6.01470114,9.27736636 C9.48547937,8.24352337 9.7066443,8.24352337 9.7066443,8.24352337" id="Path-30" stroke="#413A34" stroke-width="2" stroke-linecap="round" stroke-linejoin="round"></path>
                <circle id="Oval-9-Copy" fill="#FFFFFF" cx="18" cy="21" r="2"></circle>
                <circle id="Oval-9-Copy" stroke="#413A34" stroke-width="2" stroke-linecap="round" stroke-linejoin="round" cx="18" cy="21" r="2"></circle>
            </g>
            <g id="Group-5" transform="translate(15.602175, 99.005325) rotate(-9.000000) translate(-15.602175, -99.005325) translate(4.602175, 81.505325)">
                <circle id="Oval-10-Copy-2" fill="#FFD4F5" cx="12" cy="6" r="6"></circle>
                <path d="M8.06997169,6.30294139 C8.06997169,6.30294139 17.1229716,3.76919973 16.4541789,2.4368443 C15.7853861,1.10448888 17.8715226,7.11207383 17.8715226,7.11207383 L10.8994291,8.4391992 L8.06997169,6.30294139 Z" id="Path-7" fill="#F9B4EA"></path>
                <circle id="Oval-10-Copy-2" stroke="#413A34" stroke-width="2" stroke-linecap="round" stroke-linejoin="round" cx="12" cy="6" r="6"></circle>
                <circle id="Oval-10" fill="#FFFFFF" cx="15.5" cy="12.5" r="5.5"></circle>
                <path d="M18.4917195,8.71726357 C18.4917195,8.71726357 18.5069738,15.445288 14.3752337,15.4707845 C10.2434936,15.496281 21.3340341,17.1988804 21.1376893,14.3116745 C20.9413445,11.4244686 18.4917195,8.71726357 18.4917195,8.71726357 Z" id="Path-6" fill="#F1F1F1"></path>
                <circle id="Oval-10" stroke="#413A34" stroke-width="2" stroke-linecap="round" stroke-linejoin="round" cx="15.5" cy="12.5" r="5.5"></circle>
                <circle id="Oval-10-Copy" fill="#F7FAA8" cx="5.5" cy="11.5" r="5.5"></circle>
                <path d="M1.52390943,14.8734691 C1.52390943,14.8734691 10.2855519,14.4223772 10.2153821,10.3915336 C10.1452122,6.36068987 12.434449,16.8944479 6.63061814,16.2104008 C0.826787249,15.5263538 1.52390943,14.8734691 1.52390943,14.8734691 Z" id="Path-5" fill="#E8EC76"></path>
                <circle id="Oval-10-Copy" stroke="#413A34" stroke-width="2" stroke-linecap="round" stroke-linejoin="round" cx="5.5" cy="11.5" r="5.5"></circle>
                <path d="M10.5514699,33.9823759 C10.7991863,34.47325 11.2019472,34.4710039 11.4485301,33.9823759 L18,21 L4,21 L10.5514699,33.9823759 Z" id="Path-32" fill="#FFEFD3"></path>
                <path d="M18.6901723,20.6165222 C19.2419984,20.61917 19.8863472,20.2273056 20.1348599,19.7302802 L21.5544819,16.8910363 C21.8005347,16.3989305 21.5605417,16 20.9975383,16 L1.00246167,16 C0.448817378,16 0.201346609,16.4026932 0.448254659,16.8965093 L1.82061007,19.6412201 C2.06817428,20.1363486 2.71699182,20.5398797 3.26803422,20.5425237 L18.6901723,20.6165222 Z" id="Path-32-Copy" fill="#FFEFD3"></path>
                <polygon id="Path-4" fill="#EBCE9A" points="10.1796299 31.7566673 14.5572354 21.5392389 16.1208613 20.4115432 17.796836 16.1833153 21.4959305 16.3791893 18.9798645 20.9139569 17.7991503 21.4767528 11.3104815 33.6249394"></polygon>
                <path d="M10.5514699,33.9823759 C10.7991863,34.47325 11.2019472,34.4710039 11.4485301,33.9823759 L18,21 L4,21 L10.5514699,33.9823759 Z" id="Path-32" stroke="#413A34" stroke-width="2" stroke-linecap="round" stroke-linejoin="round"></path>
                <path d="M18.6901723,20.6165222 C19.2419984,20.61917 19.8863472,20.2273056 20.1348599,19.7302802 L21.5544819,16.8910363 C21.8005347,16.3989305 21.5605417,16 20.9975383,16 L1.00246167,16 C0.448817378,16 0.201346609,16.4026932 0.448254659,16.8965093 L1.82061007,19.6412201 C2.06817428,20.1363486 2.71699182,20.5398797 3.26803422,20.5425237 L18.6901723,20.6165222 Z" id="Path-32-Copy" stroke="#413A34" stroke-width="2" stroke-linecap="round" stroke-linejoin="round"></path>
            </g>
            <g id="Group-3" transform="translate(276.584806, 71.584806) rotate(-6.000000) translate(-276.584806, -71.584806) translate(260.584806, 55.584806)">
                <path d="M26.6666667,29.3333333 L26.6666667,16 L26.6666667,2.66666667 L27.5555556,2.66666667 L27.5555556,0 L3.55555556,0 L3.55555556,2.66666667 L4.44444444,2.66666667 L4.44444444,16 L4.44444444,29.3333333 L3.55555556,29.3333333 L3.55555556,32 L27.5555556,32 L27.5555556,29.3333333 L26.6666667,29.3333333 Z" id="Combined-Shape" fill="#F2F2F2"></path>
                <path d="M21.0325289,13.7724569 C21.4743341,14.9389957 22.3525447,16.0847684 24.0938412,16.2528504 C24.0938412,16.5257167 24.0938412,31.650202 24.0938412,31.650202 L27.7113927,31.3975816 L27.6079218,29.9358917 L26.7288559,29.1471992 L26.243154,14.4567357 L22.1883617,10.5885839 L20.5908936,11.1190359 C20.5908936,11.1190359 20.5847577,11.2662484 20.5946712,11.5109186 L9.65095088,11.7360072 L8.45487945,13.7724569 L21.0325289,13.7724569 Z M24.332467,0.41742904 L26.9609663,0.159831479 L27.3927415,1.26746237 L26.8705947,3.8098383 L24.332467,3.7590323 L24.332467,0.41742904 Z" id="Combined-Shape" fill="#D8D8D8"></path>
                <path d="M26.6666667,29.3333333 L26.6666667,16 L26.6666667,2.66666667 L27.5555556,2.66666667 L27.5555556,0 L3.55555556,0 L3.55555556,2.66666667 L4.44444444,2.66666667 L4.44444444,16 L4.44444444,29.3333333 L3.55555556,29.3333333 L3.55555556,32 L27.5555556,32 L27.5555556,29.3333333 L26.6666667,29.3333333 Z" id="Combined-Shape" stroke="#413A34" stroke-width="2" stroke-linecap="round" stroke-linejoin="round"></path>
                <path d="M20.8888889,16.4444444 L20.8888889,27.1111111" id="Line-Copy-3" stroke="#D3D2D3" stroke-width="3" stroke-linecap="round" stroke-linejoin="round"></path>
                <path d="M15.5555556,16.4444444 L15.5555556,27.1111111" id="Line-Copy-4" stroke="#D3D2D3" stroke-width="3" stroke-linecap="round" stroke-linejoin="round"></path>
                <path d="M10.2222222,16.4444444 L10.2222222,27.1111111" id="Line-Copy-5" stroke="#D3D2D3" stroke-width="3" stroke-linecap="round" stroke-linejoin="round"></path>
                <path d="M10.6666667,16.4444444 L10.6666667,27.1111111" id="Line" stroke="#413A34" stroke-width="2" stroke-linecap="round" stroke-linejoin="round"></path>
                <path d="M16,16.4444444 L16,27.1111111" id="Line-Copy" stroke="#413A34" stroke-width="2" stroke-linecap="round" stroke-linejoin="round"></path>
                <path d="M21.3333333,16.4444444 L21.3333333,27.1111111" id="Line-Copy-2" stroke="#413A34" stroke-width="2" stroke-linecap="round" stroke-linejoin="round"></path>
                <path d="M8.43523218,10.0907838 C8.43523218,10.0907838 9.60912587,15.0321343 4.08518032,14.3765941 C-1.43876522,13.7210538 -0.128924539,5.73506764 2.34015841,4.76619433 C4.80924136,3.79732103 27.3820725,4.58659426 27.3820725,4.58659426 C27.3820725,4.58659426 30.2059382,4.81910728 30.6419519,6.86848223 C31.0779656,8.91785719 32.0164451,9.11693696 30.9073456,11.1321879 C29.7982461,13.1474388 28.915719,15.7353377 24.7865752,13.9307715 C20.6574314,12.1262052 23.0756773,10.1754721 23.0756773,10.1754721 L8.43523218,10.0907838 Z" id="Path-24" fill="#FFFFFF"></path>
                <path d="M8.93028048,10.5772442 L22.5361637,10.5772442" id="Path-23" stroke="#413A34" stroke-width="2" stroke-linecap="round" stroke-linejoin="round"></path>
                <path d="M5.71133641,10.5142869 C5.71133641,10.5142869 5.24098216,11.9509234 3.86233155,11.1040252 C2.48368095,10.257127 2.6408512,7.13228543 5.71133641,7.48461743 C8.78182162,7.83694942 9.5235732,11.0489169 8.34157833,12.8499538 C7.15958346,14.6509907 2.13398763,15.3513049 0.539908559,11.9509234 C-1.05417051,8.55054191 1.04494065,4.41710838 4.69325949,4.44458066 C8.34157833,4.47205294 17.3097362,4.44458066 17.3097362,4.44458066" id="Path-22" stroke="#413A34" stroke-width="2" stroke-linecap="round" stroke-linejoin="round"></path>
                <path d="M19.9335586,10.5142869 C19.9335586,10.5142869 19.4632044,11.9509234 18.0845538,11.1040252 C16.7059032,10.257127 16.8630734,7.13228543 19.9335586,7.48461743 C23.0040438,7.83694942 23.7457954,11.0489169 22.5638006,12.8499538 C21.3818057,14.6509907 16.3562099,15.3513049 14.7621308,11.9509234 C13.1680517,8.55054191 15.2671629,4.41710838 18.9154817,4.44458066 C22.5638006,4.47205294 31.5319584,4.44458066 31.5319584,4.44458066" id="Path-22-Copy" stroke="#413A34" stroke-width="2" stroke-linecap="round" stroke-linejoin="round" transform="translate(22.877090, 9.398065) scale(-1, 1) translate(-22.877090, -9.398065) "></path>
            </g>
        </g>
    </g>
</svg>